<svg width="74.000000" height="69.522461" viewBox="0 0 74 69.5225" fill="none" xmlns="http://www.w3.org/2000/svg" xmlns:xlink="http://www.w3.org/1999/xlink">
	<desc>
			Created with Pixso.
	</desc>
	<defs/>
	<path id="XMLID 501" d="M30.8503 38.7188C32.9521 38.7188 34.9277 37.9004 36.4141 36.4146C37.8999 34.9282 38.7185 32.9526 38.7185 30.8511C38.7185 28.749 37.8999 26.7734 36.4141 25.2876C34.9277 23.8013 32.9521 22.9829 30.8503 22.9829C28.7488 22.9829 26.7729 23.8013 25.2869 25.2876C23.801 26.7734 22.9824 28.749 22.9824 30.8511C22.9824 32.9526 23.801 34.9282 25.2869 36.4146C26.7729 37.9004 28.7488 38.7188 30.8503 38.7188ZM27.3311 27.3315C28.3013 26.3613 29.5759 25.876 30.8503 25.876C32.125 25.876 33.3997 26.3613 34.3699 27.3315C36.3105 29.272 36.3105 32.4297 34.3699 34.3701C32.4292 36.311 29.2717 36.311 27.3311 34.3701C25.3901 32.4297 25.3901 29.272 27.3311 27.3315Z" fill="#FFFFFF" fill-opacity="1.000000" fill-rule="nonzero"/>
	<path id="XMLID 504" d="M73.7996 49.5396L69.4221 33.2026L70.4595 32.6035C71.8032 31.8276 72.7644 30.5752 73.1663 29.0762C73.5679 27.5771 73.3618 26.0117 72.5859 24.668L61.6743 5.76904C60.8987 4.4248 59.6458 3.46387 58.147 3.06201C56.6479 2.66064 55.0825 2.8667 53.7388 3.64258L49.1304 6.30322L44.5259 1.69873C42.2607 -0.566406 38.5754 -0.566406 36.3103 1.69873L23.4939 14.5151C22.9294 15.0796 22.9294 15.9946 23.4939 16.5591C24.0581 17.1235 24.9734 17.1235 25.5378 16.5591L38.3542 3.74268C38.9055 3.19141 39.6384 2.88818 40.4182 2.88818C41.1978 2.88818 41.9307 3.19141 42.4819 3.74268L57.9133 19.1738C59.0513 20.312 59.0513 22.1636 57.9133 23.3013L23.3015 57.9131C22.1633 59.0513 20.3118 59.0513 19.1738 57.9131L3.74268 42.4819C2.60474 41.3442 2.60474 39.4927 3.74268 38.3545L16.3401 25.7573C16.9045 25.1929 16.9045 24.2778 16.3401 23.7134C15.7756 23.1489 14.8606 23.1489 14.2961 23.7134L1.69873 36.3105C-0.566406 38.5757 -0.566162 42.2612 1.69873 44.5264L12.7002 55.5278L15.2961 65.2158C15.9907 67.8081 18.344 69.5225 20.9089 69.5225C21.4053 69.5225 21.9094 69.458 22.4111 69.3237L69.6917 56.6548C71.1904 56.2534 72.4434 55.292 73.2192 53.9482C73.9951 52.6045 74.2012 51.0386 73.7996 49.5396ZM59.9573 25.3457C62.2224 23.0806 62.2224 19.395 59.9573 17.1299L51.2468 8.41943L55.1843 6.146C56.5781 5.34131 58.3667 5.82031 59.1711 7.21436L70.0828 26.1133C70.4724 26.7886 70.5759 27.5747 70.3743 28.3281C70.1724 29.0811 69.6895 29.7104 69.0142 30.1001L36.335 48.9678L59.9573 25.3457ZM70.7158 52.5024C70.3259 53.1777 69.6965 53.6606 68.9434 53.8623L21.6628 66.5312C20.1082 66.9473 18.5046 66.022 18.0881 64.4673L16.7881 59.6157L17.1296 59.9575C18.2622 61.0898 19.7498 61.6558 21.2375 61.6558C22.7251 61.6558 24.2126 61.0898 25.3452 59.9575L28.4375 56.8652L66.8303 34.6992L71.0073 50.2876C71.2092 51.041 71.1055 51.8276 70.7158 52.5024Z" fill="#FFFFFF" fill-opacity="1.000000" fill-rule="nonzero"/>
	<path id="XMLID 506" d="M19.9167 21.5811C20.2983 21.5811 20.6697 21.4263 20.9385 21.1577C21.2075 20.8887 21.3621 20.5156 21.3621 20.1357C21.3621 19.7559 21.2075 19.3828 20.9385 19.1138C20.6697 18.8452 20.2969 18.6904 19.9167 18.6904C19.5366 18.6904 19.1638 18.8452 18.895 19.1138C18.626 19.3828 18.4714 19.7559 18.4714 20.1357C18.4714 20.5171 18.626 20.8887 18.895 21.1577C19.1638 21.4263 19.5366 21.5811 19.9167 21.5811Z" fill="#FFFFFF" fill-opacity="1.000000" fill-rule="nonzero"/>
</svg>
