<svg width="103.000000" height="84.000000" viewBox="0 0 103 84" fill="none" xmlns="http://www.w3.org/2000/svg" xmlns:xlink="http://www.w3.org/1999/xlink">
	<desc>
			Created with Pixso.
	</desc>
	<defs>
		<clipPath id="clip220_23">
			<rect id="car 1" width="103.000000" height="84.000000" fill="white" fill-opacity="0"/>
		</clipPath>
	</defs>
	<g clip-path="url(#clip220_23)">
		<path id="Vector" d="M32.1672 56.7725C32.0098 56.7725 31.8538 56.8032 31.7083 56.8638C31.5627 56.9238 31.4304 57.0122 31.3191 57.1235C31.2078 57.2349 31.1194 57.3667 31.0591 57.5122C30.9988 57.6577 30.9678 57.8135 30.9678 57.9707C30.9678 58.1279 30.9988 58.2837 31.0591 58.4292C31.1194 58.5747 31.2078 58.7065 31.3191 58.8179C31.4304 58.9292 31.5627 59.0176 31.7083 59.0776C31.8538 59.1382 32.0098 59.1689 32.1672 59.1689L34.7429 59.1689C35.061 59.1689 35.3662 59.043 35.5911 58.8179C35.8162 58.5933 35.9424 58.2886 35.9424 57.9707C35.9424 57.6528 35.8162 57.3481 35.5911 57.1235C35.3662 56.8989 35.061 56.7725 34.7429 56.7725L32.1672 56.7725Z" fill="#FFFFFF" fill-opacity="1.000000" fill-rule="nonzero"/>
		<path id="Vector" d="M29.011 59.8496C29.1533 59.7632 29.2764 59.6479 29.3716 59.5112C29.467 59.3745 29.533 59.2197 29.5649 59.0562C29.5969 58.8926 29.5945 58.7241 29.5579 58.5615C29.521 58.3994 29.4507 58.2461 29.3513 58.1123C29.2522 57.9785 29.126 57.8667 28.981 57.7847C28.8359 57.7021 28.6755 57.6509 28.5095 57.6338C28.3438 57.6167 28.176 57.6348 28.0173 57.686C27.8589 57.7378 27.7126 57.8218 27.5884 57.9326C27.5083 57.9912 19.2256 64.0078 8.79224 61.8301C8.72827 61.8169 8.6709 61.7817 8.62964 61.7314C8.58838 61.6807 8.56543 61.6177 8.56494 61.5527C8.56494 61.271 8.56494 60.981 8.56494 60.7119C8.52295 58.9331 8.48071 57.2515 9.24683 56.4692C9.66748 56.0488 10.4294 55.8179 11.5068 55.8179C11.6699 55.8276 11.8335 55.8037 11.9871 55.748C12.1409 55.6924 12.2815 55.6055 12.4004 55.4937C12.5195 55.3818 12.6143 55.2466 12.6792 55.0967C12.7439 54.9468 12.7773 54.7852 12.7773 54.6216C12.7773 54.4585 12.7439 54.2969 12.6792 54.1465C12.6143 53.9966 12.5195 53.8618 12.4004 53.7495C12.2815 53.6377 12.1409 53.5508 11.9871 53.4951C11.8335 53.4395 11.6699 53.416 11.5068 53.4253C9.73486 53.4253 8.43433 53.8755 7.53369 54.8003C6.06494 56.3013 6.11963 58.5845 6.17017 60.7666C6.17017 61.0439 6.17017 61.3213 6.17017 61.6074C6.17505 62.2178 6.38965 62.8081 6.77808 63.2793C7.1665 63.751 7.70508 64.0747 8.30396 64.1973C10.0037 64.5522 11.7356 64.7314 13.4722 64.731C19.0205 64.6709 24.4268 62.9722 29.011 59.8496Z" fill="#FFFFFF" fill-opacity="1.000000" fill-rule="nonzero"/>
		<path id="Vector" d="M3.40918 27.3369C3.57227 27.3467 3.73584 27.3232 3.8894 27.2671C4.04321 27.2114 4.18384 27.125 4.30273 27.0132C4.42188 26.9009 4.5166 26.7656 4.5813 26.6157C4.64624 26.4658 4.67969 26.3042 4.67969 26.1411C4.67969 25.9775 4.64624 25.8159 4.5813 25.666C4.5166 25.5161 4.42188 25.3809 4.30273 25.269C4.18384 25.1567 4.04321 25.0703 3.8894 25.0146C3.73584 24.959 3.57227 24.9351 3.40918 24.9448C3.22656 24.9443 3.04858 24.8887 2.89819 24.7852C2.74805 24.6812 2.63281 24.5347 2.56738 24.3647L2.56738 24.335C2.42505 23.9712 2.37939 23.5767 2.43457 23.1899C2.48999 22.8032 2.64429 22.4375 2.88306 22.1279L3.52686 21.2871C3.61157 21.1768 3.7207 21.0879 3.84546 21.0264C3.97021 20.9653 4.10767 20.9336 4.24658 20.9336L8.37964 20.9336C8.4353 21.2266 8.5979 21.4883 8.83618 21.6675C9.07446 21.8467 9.37085 21.9312 9.66797 21.9038C9.96509 21.8765 10.2412 21.7393 10.4426 21.5195C10.644 21.2998 10.7563 21.0132 10.7576 20.7153C10.7563 20.1392 10.5269 19.5869 10.1189 19.1792C9.71118 18.772 9.15845 18.5425 8.58154 18.5415L4.22974 18.5415C3.72632 18.5405 3.22925 18.6533 2.77588 18.8716C2.32227 19.0903 1.92456 19.4087 1.61206 19.8027L0.972168 20.6436C0.481445 21.2812 0.16333 22.0347 0.0490723 22.8306C-0.0651855 23.627 0.0280762 24.439 0.319824 25.1885L0.319824 25.2183C0.556396 25.8442 0.979248 26.3833 1.53149 26.7622C2.08398 27.1406 2.73901 27.3418 3.40918 27.3369Z" fill="#FFFFFF" fill-opacity="1.000000" fill-rule="nonzero"/>
		<path id="Vector" d="M101.413 62.0781L101.413 43.5786C101.413 36.4312 96.969 30.2173 95.3486 28.7622C93.7283 27.3076 91.9814 23.8179 91.3545 22.5903C85.2476 6.59668 81.165 3.22461 78.2947 2.07715C78.23 2.04883 78.1621 2.02783 78.0928 2.01367C69.3596 0.332031 52.2639 0.0126953 51.54 0L51.4978 0C50.7739 0 33.6782 0.328125 24.9451 2.01367C24.8699 2.02637 24.7966 2.04785 24.7263 2.07715C21.856 3.22461 17.7734 6.59668 11.6792 22.5986C11.0647 23.8267 9.30542 27.3159 7.68506 28.771C6.0647 30.2256 1.62036 36.4438 1.62036 43.5874L1.62036 62.0864C0.778564 63.6382 0.273438 66.7114 2.80298 70.0752L2.80298 79.7954C2.80298 80.9106 3.24634 81.98 4.03564 82.7686C4.82495 83.5571 5.89551 84 7.01172 84L14.4358 84C15.552 84 16.6226 83.5571 17.4119 82.7686C18.2012 81.98 18.6445 80.9106 18.6445 79.7954L18.6445 77.3022C18.6543 77.1392 18.6304 76.9761 18.5747 76.8223C18.5188 76.6689 18.4324 76.5283 18.3201 76.4097C18.208 76.2905 18.0728 76.1958 17.9226 76.1313C17.7725 76.0664 17.6108 76.0332 17.4473 76.0332C17.2837 76.0332 17.1218 76.0664 16.9719 76.1313C16.8218 76.1958 16.6865 76.2905 16.5742 76.4097C16.4622 76.5283 16.3755 76.6689 16.3198 76.8223C16.2639 76.9761 16.2402 77.1392 16.2498 77.3022L16.2498 79.7954C16.2488 80.2759 16.0574 80.7363 15.7173 81.0757C15.3774 81.4155 14.9167 81.6064 14.4358 81.6079L6.96533 81.6079C6.48462 81.6064 6.02393 81.4155 5.68408 81.0757C5.34399 80.7363 5.15259 80.2759 5.15137 79.7954L5.15137 72.2275C6.57812 72.8076 10.446 73.6572 22.5293 74.271C30.6689 74.6914 41.2244 74.9229 51.4854 74.9229C61.7461 74.9229 72.3015 74.687 80.4412 74.271C92.5244 73.6572 96.3923 72.8076 97.8191 72.2275L97.8191 79.7954C97.8179 80.2759 97.6265 80.7363 97.2866 81.0757C96.9465 81.4155 96.4858 81.6064 96.0051 81.6079L88.6145 81.6079C88.1338 81.6064 87.6731 81.4155 87.3333 81.0757C86.9932 80.7363 86.8018 80.2759 86.8005 79.7954L86.8005 77.3022C86.8103 77.1392 86.7866 76.9761 86.7307 76.8223C86.6748 76.6689 86.5884 76.5283 86.4761 76.4097C86.364 76.2905 86.2288 76.1958 86.0786 76.1313C85.9285 76.0664 85.7666 76.0332 85.6033 76.0332C85.4397 76.0332 85.2781 76.0664 85.1279 76.1313C84.9778 76.1958 84.8425 76.2905 84.7302 76.4097C84.6182 76.5283 84.5315 76.6689 84.4758 76.8223C84.4199 76.9761 84.3962 77.1392 84.4058 77.3022L84.4058 79.7954C84.4058 80.9106 84.8494 81.98 85.6387 82.7686C86.4277 83.5571 87.4983 84 88.6145 84L96.022 84C97.1382 84 98.2087 83.5571 98.998 82.7686C99.7871 81.98 100.231 80.9106 100.231 79.7954L100.231 70.0537C102.76 66.7241 102.259 63.6294 101.413 62.0781ZM97.1499 69.9028C96.7668 70.1548 94.3848 71.1641 80.3359 71.8872C72.2341 72.3076 61.7251 72.5347 51.5022 72.5347C41.2791 72.5347 30.77 72.2993 22.6682 71.8872C8.61938 71.1724 6.25415 70.1548 5.85425 69.9028C1.88135 66.1396 3.70776 63.1758 3.7793 63.083C3.91479 62.8848 3.98804 62.6504 3.98975 62.4102L3.98975 43.5874C3.98975 37.2808 8.09766 31.5962 9.25903 30.5537C11.0352 28.96 12.7102 25.832 13.8171 23.6206C13.8381 23.5825 13.8508 23.5488 13.8677 23.5112C20.2271 6.82373 24.1074 4.90234 25.4839 4.33887C33.9011 2.74121 50.7993 2.40918 51.4937 2.39648C52.188 2.38379 69.0693 2.74121 77.5037 4.33887C78.8882 4.90234 82.7686 6.82373 89.1279 23.5068C89.1279 23.5449 89.1575 23.5781 89.1785 23.6162C90.2854 25.8276 91.9604 28.9556 93.7366 30.5493C94.8982 31.5962 99.01 37.2764 99.01 43.583L99.01 62.4062C99.0068 62.6411 99.0759 62.8716 99.208 63.0664C99.2964 63.1924 101.123 66.1396 97.1499 69.9028Z" fill="#FFFFFF" fill-opacity="1.000000" fill-rule="nonzero"/>
		<path id="Vector" d="M87.3984 67.2456C86.5566 67.3169 85.6646 67.3804 84.7512 67.4434C84.4341 67.4536 84.1343 67.5898 83.9177 67.8213C83.7009 68.0527 83.5852 68.3604 83.5959 68.6772C83.6064 68.9937 83.7427 69.2935 83.9741 69.5098C84.2058 69.7261 84.5142 69.8418 84.8311 69.8315L84.9111 69.8315C85.8369 69.7725 86.7334 69.7051 87.5879 69.6377C87.8984 69.6045 88.1838 69.4517 88.3831 69.2114C88.5825 68.9712 88.6804 68.6631 88.6558 68.3521C88.6311 68.041 88.4858 67.7515 88.251 67.5459C88.0164 67.3398 87.7104 67.2339 87.3984 67.25L87.3984 67.2456Z" fill="#FFFFFF" fill-opacity="1.000000" fill-rule="nonzero"/>
		<path id="Vector" d="M78.4255 67.792C74.0525 67.9897 69.1663 68.1411 63.8464 68.2334C63.5283 68.2334 63.2231 68.3599 62.9983 68.5845C62.7734 68.8091 62.647 69.1138 62.647 69.4316C62.647 69.7495 62.7734 70.0542 62.9983 70.2788C63.2231 70.5039 63.5283 70.6299 63.8464 70.6299L63.8718 70.6299C69.1917 70.5376 74.1199 70.3862 78.5139 70.1841C78.8308 70.1699 79.1292 70.0303 79.343 69.7959C79.5569 69.5615 79.6689 69.2524 79.6543 68.9355C79.6399 68.6191 79.5 68.3208 79.2656 68.1074C79.0312 67.8936 78.7214 67.7817 78.4043 67.7964L78.4255 67.792Z" fill="#FFFFFF" fill-opacity="1.000000" fill-rule="nonzero"/>
		<path id="Vector" d="M57.71 68.3174C55.6057 68.3384 53.5308 68.3467 51.5105 68.3467C38.2615 68.3467 19.5537 67.9263 10.425 66.7158C10.1118 66.6782 9.79639 66.7651 9.54688 66.9585C9.29761 67.1514 9.13452 67.4351 9.09302 67.7476C9.05151 68.0601 9.13477 68.3765 9.3252 68.6279C9.51538 68.8794 9.79712 69.0459 10.1094 69.0913C19.3687 70.3105 38.1899 70.7393 51.5105 70.7393C53.5393 70.7393 55.6309 70.7393 57.7312 70.71C58.0364 70.6919 58.3232 70.5576 58.533 70.3354C58.7427 70.1133 58.8596 69.8193 58.8596 69.5137C58.8596 69.208 58.7427 68.9141 58.533 68.6919C58.3232 68.4692 58.0364 68.3354 57.7312 68.3174L57.71 68.3174Z" fill="#FFFFFF" fill-opacity="1.000000" fill-rule="nonzero"/>
		<path id="Vector" d="M16.1658 25.5586C17.1001 26.0044 18.6111 26.3491 20.7954 26.6055C20.9514 26.624 21.1099 26.6118 21.2612 26.5688C21.4124 26.5264 21.554 26.4546 21.6775 26.3574C21.801 26.2603 21.9041 26.1396 21.981 26.0024C22.0579 25.8652 22.1069 25.7148 22.1252 25.5586C22.1438 25.4028 22.1313 25.2446 22.0889 25.0933C22.0461 24.9424 21.9741 24.8008 21.8767 24.6777C21.7795 24.5542 21.6589 24.4512 21.5217 24.3745C21.3845 24.2974 21.2334 24.2485 21.0774 24.23C20.0117 24.1245 18.9563 23.9351 17.9209 23.6626C18.5522 21.3755 22.075 14.2739 24.9031 10.019C25.23 9.52539 25.6543 9.10303 26.1499 8.77881C26.6455 8.4541 27.2024 8.23389 27.7861 8.13135C37.2515 6.73975 51.355 6.83203 51.5149 6.83203C51.6748 6.83203 65.7571 6.73975 75.1973 8.12695C75.782 8.22705 76.3403 8.44482 76.8381 8.76758C77.3359 9.08984 77.7629 9.50977 78.093 10.0024C80.9211 14.2573 84.4438 21.3545 85.0752 23.6455C84.0398 23.918 82.9841 24.1079 81.9187 24.2134C81.605 24.2354 81.3125 24.3799 81.1047 24.6157C80.897 24.8521 80.7908 25.1602 80.8091 25.4736C80.8274 25.7876 80.9688 26.0811 81.2024 26.2915C81.436 26.502 81.7434 26.6118 82.0576 26.5972C82.1052 26.6016 82.1531 26.6016 82.2007 26.5972C84.3809 26.3408 85.8916 25.9961 86.8303 25.5503C87.0132 25.4634 87.1709 25.332 87.2891 25.1675C87.6846 24.6128 88.177 23.9062 85.2268 17.8438C83.7019 14.6909 81.9888 11.6333 80.0962 8.68652C79.5811 7.91357 78.9131 7.25391 78.1338 6.74756C77.3542 6.2417 76.4797 5.8999 75.5635 5.74316C65.9128 4.32227 51.6284 4.41895 51.5022 4.41895C51.376 4.41895 37.0747 4.32227 27.3948 5.74756C26.4834 5.90723 25.6143 6.25049 24.8401 6.75635C24.0659 7.26221 23.4028 7.92041 22.8914 8.69043C20.999 11.6372 19.2856 14.6953 17.761 17.8477C14.8147 23.9272 15.303 24.6167 15.6987 25.1719C15.8184 25.3389 15.9795 25.4722 16.1658 25.5586Z" fill="#FFFFFF" fill-opacity="1.000000" fill-rule="nonzero"/>
		<path id="Vector" d="M72.7351 24.772C66.8093 24.9448 59.3726 24.9448 51.5022 24.9448C42.2935 24.9448 33.594 24.9448 27.2432 24.6631C27.082 24.6494 26.9202 24.6685 26.7668 24.7192C26.6133 24.7695 26.4717 24.8506 26.3506 24.9575C26.2292 25.064 26.1309 25.1938 26.061 25.3394C25.9912 25.4849 25.9517 25.6431 25.9446 25.8042C25.9375 25.9653 25.9629 26.1265 26.0198 26.2778C26.0764 26.4287 26.1631 26.5669 26.2747 26.6836C26.386 26.8003 26.52 26.8936 26.6682 26.9575C26.8167 27.0215 26.9763 27.0547 27.1379 27.0552C33.5435 27.3369 42.2683 27.3369 51.5022 27.3369C59.3894 27.3369 66.843 27.3369 72.8066 27.1646C73.9177 27.1309 74.9111 27.0972 75.8665 27.0552C76.1753 27.0293 76.4619 26.8853 76.6667 26.6528C76.8713 26.4204 76.978 26.1177 76.9646 25.8086C76.9509 25.4995 76.8181 25.2075 76.5938 24.9937C76.3694 24.7803 76.071 24.6616 75.7612 24.6631C74.8269 24.7178 73.8379 24.7388 72.7351 24.772Z" fill="#FFFFFF" fill-opacity="1.000000" fill-rule="nonzero"/>
		<path id="Vector" d="M12.1677 32.9292C14.5203 34.6108 23.7878 36.5532 26.5698 37.1084C28.3459 37.4614 29.4907 39.0552 29.4949 39.0635C29.6055 39.2227 29.7524 39.3525 29.9241 39.4424C30.0955 39.5327 30.2861 39.5801 30.4797 39.5806L72.5249 39.5806C72.7175 39.5796 72.907 39.5322 73.0774 39.4429C73.248 39.3535 73.3948 39.2251 73.5056 39.0679C73.5056 39.0679 74.6587 37.4614 76.4517 37.1084C77.2175 36.957 81.2158 36.1455 84.7976 35.1787C85.0935 35.0864 85.3423 34.8833 85.4917 34.6123C85.6411 34.3408 85.6797 34.022 85.5991 33.7231C85.5186 33.4243 85.3252 33.168 85.0596 33.0078C84.7942 32.8481 84.4771 32.7974 84.1746 32.8662C80.6646 33.8164 76.7336 34.6108 75.9802 34.7622C74.4192 35.1245 73.0144 35.9746 71.9695 37.1885L31.0522 37.1885C30.0071 35.9746 28.6023 35.1245 27.0413 34.7622C21.5698 33.6689 15.0168 32.021 13.5735 30.9785C13.446 30.8765 13.2993 30.8018 13.1423 30.7583C12.9851 30.7153 12.8208 30.7041 12.6592 30.7266C12.4978 30.749 12.3425 30.8037 12.2029 30.8882C12.0635 30.9727 11.9426 31.084 11.8477 31.2168C11.7529 31.3491 11.686 31.4995 11.6514 31.6587C11.6167 31.8179 11.615 31.9824 11.646 32.1421C11.6772 32.3022 11.7407 32.4541 11.8325 32.5889C11.9243 32.7231 12.0427 32.8379 12.1802 32.9248L12.1677 32.9292Z" fill="#FFFFFF" fill-opacity="1.000000" fill-rule="nonzero"/>
		<path id="Vector" d="M87.5374 33.1265C87.627 33.3486 87.781 33.5391 87.9797 33.6733C88.1785 33.8071 88.4128 33.8789 88.6526 33.8794C88.8037 33.8779 88.9534 33.8491 89.0945 33.7949C89.708 33.5698 90.2927 33.2734 90.8369 32.9121C90.9897 32.833 91.1238 32.7227 91.23 32.5874C91.3362 32.4521 91.4119 32.2954 91.4521 32.1284C91.4927 31.9614 91.4963 31.7876 91.4636 31.6191C91.4309 31.4507 91.3621 31.291 91.2622 31.1509C91.1621 31.0112 91.0332 30.8945 90.884 30.8091C90.7349 30.7231 90.5691 30.6704 90.3979 30.6548C90.2266 30.6387 90.054 30.6597 89.8916 30.7163C89.729 30.7725 89.5808 30.8633 89.4565 30.9824C89.0691 31.229 88.6555 31.4321 88.2234 31.5879C87.9292 31.7026 87.6924 31.9282 87.564 32.2163C87.4355 32.5044 87.426 32.8315 87.5374 33.1265Z" fill="#FFFFFF" fill-opacity="1.000000" fill-rule="nonzero"/>
		<path id="Vector" d="M68.2698 56.7725C67.9517 56.7725 67.6465 56.8989 67.4216 57.1235C67.1968 57.3481 67.0703 57.6528 67.0703 57.9707C67.0703 58.2886 67.1968 58.5933 67.4216 58.8179C67.6465 59.043 67.9517 59.1689 68.2698 59.1689L70.8372 59.1689C70.9946 59.1689 71.1506 59.1382 71.2961 59.0776C71.4417 59.0176 71.574 58.9292 71.6853 58.8179C71.7966 58.7065 71.885 58.5747 71.9453 58.4292C72.0056 58.2837 72.0366 58.1279 72.0366 57.9707C72.0366 57.8135 72.0056 57.6577 71.9453 57.5122C71.885 57.3667 71.7966 57.2349 71.6853 57.1235C71.574 57.0122 71.4417 56.9238 71.2961 56.8638C71.1506 56.8032 70.9946 56.7725 70.8372 56.7725L68.2698 56.7725Z" fill="#FFFFFF" fill-opacity="1.000000" fill-rule="nonzero"/>
		<path id="Vector" d="M40.1218 56.7725C39.8037 56.7725 39.4985 56.8989 39.2737 57.1235C39.0488 57.3481 38.9224 57.6528 38.9224 57.9707C38.9224 58.2886 39.0488 58.5933 39.2737 58.8179C39.4985 59.043 39.8037 59.1689 40.1218 59.1689L62.8826 59.1689C63.2007 59.1689 63.5059 59.043 63.7307 58.8179C63.9558 58.5933 64.082 58.2886 64.082 57.9707C64.082 57.6528 63.9558 57.3481 63.7307 57.1235C63.5059 56.8989 63.2007 56.7725 62.8826 56.7725L40.1218 56.7725Z" fill="#FFFFFF" fill-opacity="1.000000" fill-rule="nonzero"/>
		<path id="Vector" d="M91.5188 53.4087C91.3555 53.3994 91.1921 53.4229 91.0383 53.4785C90.8848 53.5342 90.7439 53.6211 90.625 53.7329C90.5061 53.8452 90.4111 53.98 90.3464 54.1299C90.2817 54.2803 90.2483 54.4419 90.2483 54.605C90.2483 54.7686 90.2817 54.9302 90.3464 55.0801C90.4111 55.23 90.5061 55.3652 90.625 55.4771C90.7439 55.5889 90.8848 55.6758 91.0383 55.7314C91.1921 55.7871 91.3555 55.811 91.5188 55.8013C92.5962 55.8013 93.3579 56.02 93.7788 56.4526C94.5447 57.2349 94.5027 58.9165 94.4607 60.6953C94.4607 60.9766 94.4607 61.2671 94.4607 61.5361C94.4602 61.6011 94.4373 61.6641 94.396 61.7148C94.3545 61.7651 94.2971 61.7998 94.2334 61.8135C92.2246 62.2275 90.1689 62.3691 88.1223 62.2339C87.8159 62.2324 87.5208 62.3481 87.2971 62.5571C87.0735 62.7666 86.9382 63.0532 86.9194 63.3584C86.9006 63.6641 86.9995 63.9648 87.1958 64.1997C87.3921 64.4351 87.6709 64.5859 87.9751 64.6221C88.5095 64.6558 89.0481 64.6724 89.5869 64.6724C91.312 64.6733 93.0325 64.4971 94.7217 64.147C95.3203 64.0244 95.8589 63.7007 96.2473 63.2295C96.6357 62.7578 96.8503 62.1675 96.8555 61.5571C96.8555 61.2837 96.8555 61.0063 96.8555 60.7163C96.9102 58.5215 96.9607 56.251 95.4917 54.75C94.5911 53.8589 93.2905 53.4087 91.5188 53.4087Z" fill="#FFFFFF" fill-opacity="1.000000" fill-rule="nonzero"/>
		<path id="Vector" d="M82.0913 61.1157C79.7236 60.3867 77.4761 59.3145 75.4204 57.9326C75.1646 57.7656 74.8542 57.7021 74.5532 57.7559C74.252 57.8096 73.9829 57.9761 73.8005 58.2217C73.6184 58.4673 73.5369 58.7729 73.5728 59.0762C73.6086 59.3799 73.7593 59.6582 73.9937 59.854C76.2581 61.4014 78.7441 62.5962 81.3674 63.3984C81.6665 63.481 81.9858 63.4443 82.2585 63.2964C82.5312 63.1484 82.7358 62.9004 82.8296 62.605C82.9231 62.3096 82.8987 61.9893 82.761 61.7114C82.6233 61.4341 82.3833 61.2202 82.0913 61.1157Z" fill="#FFFFFF" fill-opacity="1.000000" fill-rule="nonzero"/>
		<path id="Vector" d="M11.3005 42.8726C13.8369 43.7847 16.4326 44.522 19.0698 45.0796L20.3577 45.3574C22.6675 46.0723 24.7942 47.2803 26.5908 48.8975C29.0613 51.2012 31.8601 53.4761 36.5149 53.8081C40.6941 54.1064 47.3608 54.4219 51.4937 54.4219C55.6267 54.4219 62.2932 54.1064 66.4727 53.8081C71.1274 53.4761 73.9263 51.2012 76.3967 48.8975C78.1931 47.2803 80.3201 46.0723 82.6299 45.3574L83.9177 45.0796C86.5549 44.522 89.1506 43.7847 91.687 42.8726C92.6016 42.5342 93.3926 41.9277 93.9558 41.1323C94.5193 40.3369 94.8286 39.3901 94.8435 38.4155L94.8435 38.3823C94.8516 37.145 94.563 35.9238 94.0017 34.8208C93.9304 34.6812 93.8323 34.5566 93.7129 34.4546C93.5933 34.3525 93.4548 34.2749 93.3054 34.2261C93.156 34.1777 92.9983 34.1587 92.8416 34.1709C92.6848 34.1836 92.532 34.2266 92.3921 34.2974C92.252 34.3687 92.1272 34.4668 92.0249 34.5864C91.9229 34.7056 91.8452 34.8438 91.7966 34.9932C91.7478 35.1426 91.7292 35.2998 91.7415 35.4565C91.7537 35.6133 91.7966 35.7656 91.8679 35.9058C92.2622 36.6807 92.4656 37.5381 92.4614 38.4072C92.4497 38.8965 92.2903 39.3706 92.0042 39.7676C91.718 40.1641 91.3184 40.4653 90.8579 40.6313C88.5859 41.4507 86.2617 42.1182 83.9009 42.6284C82.814 41.7764 82.0869 40.5474 81.8638 39.1851C81.8445 39.0249 81.793 38.8696 81.7122 38.7295C81.6313 38.5898 81.5229 38.4673 81.3936 38.3701C81.2642 38.2729 81.1165 38.2031 80.9595 38.1646C80.8022 38.126 80.6389 38.1196 80.4792 38.1455C80.3193 38.1719 80.1667 38.23 80.03 38.3164C79.8936 38.4033 79.7759 38.5166 79.6841 38.6499C79.5925 38.7832 79.5288 38.9336 79.4971 39.0918C79.4651 39.2505 79.4656 39.4136 79.4985 39.5718C79.7192 40.9497 80.2998 42.2446 81.1821 43.3267C78.7998 44.1543 76.6096 45.4541 74.7427 47.1484C72.4995 49.2505 70.1636 51.1426 66.2832 51.4199C62.1501 51.7188 55.5552 52.0298 51.4768 52.0298C47.3987 52.0298 40.8037 51.7188 36.6707 51.4199C32.7903 51.1426 30.4543 49.2422 28.2112 47.1484C26.3442 45.4541 24.1541 44.1543 21.7717 43.3267C22.6541 42.2446 23.2346 40.9497 23.4553 39.5718C23.4883 39.4136 23.4888 39.2505 23.4568 39.0918C23.425 38.9336 23.3613 38.7832 23.2695 38.6499C23.178 38.5166 23.0603 38.4033 22.9238 38.3164C22.7871 38.23 22.6343 38.1719 22.4746 38.1455C22.3149 38.1196 22.1516 38.126 21.9944 38.1646C21.8374 38.2031 21.6897 38.2729 21.5603 38.3701C21.4309 38.4673 21.3225 38.5898 21.2417 38.7295C21.1609 38.8696 21.1094 39.0249 21.0898 39.1851C20.8669 40.5474 20.1399 41.7764 19.053 42.6284C16.6921 42.1182 14.3679 41.4507 12.0959 40.6313C11.6321 40.4629 11.2302 40.1577 10.9441 39.7559C10.6577 39.3545 10.5002 38.875 10.4924 38.3823C10.491 37.5215 10.6943 36.6724 11.0859 35.9058C11.1572 35.7656 11.2002 35.6133 11.2124 35.4565C11.2246 35.2998 11.2058 35.1426 11.1572 34.9932C11.1086 34.8438 11.031 34.7056 10.9287 34.5864C10.8267 34.4668 10.7019 34.3687 10.5618 34.2974C10.4216 34.2266 10.269 34.1836 10.1123 34.1709C9.95557 34.1587 9.79785 34.1777 9.64844 34.2261C9.49902 34.2749 9.3606 34.3525 9.24097 34.4546C9.12158 34.5566 9.02319 34.6812 8.9519 34.8208C8.39087 35.9238 8.10229 37.145 8.11035 38.3823L8.11035 38.4155C8.12769 39.394 8.44214 40.3438 9.01172 41.1396C9.5813 41.9355 10.3796 42.5396 11.3005 42.8726Z" fill="#FFFFFF" fill-opacity="1.000000" fill-rule="nonzero"/>
		<path id="Vector" d="M102.032 20.6646L101.392 19.8237C101.08 19.4297 100.682 19.1113 100.229 18.8926C99.7751 18.6743 99.2781 18.5615 98.7747 18.5625L94.4395 18.5625C93.8628 18.5635 93.3101 18.793 92.9021 19.2002C92.4944 19.6079 92.2649 20.1602 92.2637 20.7363C92.2649 21.0342 92.3772 21.3208 92.5786 21.5405C92.78 21.7603 93.0562 21.8975 93.3533 21.9248C93.6501 21.9521 93.9468 21.8677 94.1851 21.6885C94.4231 21.5093 94.5859 21.2476 94.6416 20.9546L98.7747 20.9546C98.9136 20.9546 99.0508 20.9863 99.1758 21.0474C99.3005 21.1089 99.4094 21.1978 99.4941 21.3081L100.138 22.1489C100.376 22.458 100.531 22.8228 100.586 23.209C100.641 23.5952 100.596 23.9888 100.454 24.3521L100.454 24.3857C100.388 24.5557 100.273 24.7021 100.123 24.8062C99.9727 24.9097 99.7947 24.9653 99.6121 24.9658C99.449 24.9561 99.2854 24.98 99.1316 25.0356C98.978 25.0913 98.8374 25.1777 98.7183 25.29C98.5994 25.4019 98.5046 25.5371 98.4397 25.687C98.375 25.8369 98.3416 25.9985 98.3416 26.1621C98.3416 26.3252 98.375 26.4868 98.4397 26.6367C98.5046 26.7866 98.5994 26.9219 98.7183 27.0342C98.8374 27.146 98.978 27.2324 99.1316 27.2881C99.2854 27.3442 99.449 27.3677 99.6121 27.3579C100.278 27.3613 100.929 27.1616 101.479 26.7861C102.028 26.4106 102.45 25.877 102.689 25.2559L102.689 25.2222C102.983 24.4707 103.077 23.6558 102.962 22.8569C102.846 22.0586 102.526 21.3032 102.032 20.6646Z" fill="#FFFFFF" fill-opacity="1.000000" fill-rule="nonzero"/>
		<path id="Vector" d="M67.6721 42.8721C67.6721 42.5552 67.5464 42.251 67.3223 42.0264C67.0984 41.8018 66.7942 41.6748 66.4768 41.6738L36.5276 41.6738C36.2095 41.6738 35.9043 41.8003 35.6794 42.0249C35.4546 42.2495 35.3281 42.5542 35.3281 42.8721C35.3281 43.1899 35.4546 43.4946 35.6794 43.7192C35.9043 43.9443 36.2095 44.0703 36.5276 44.0703L66.4768 44.0703C66.7942 44.0693 67.0984 43.9424 67.3223 43.7178C67.5464 43.4932 67.6721 43.189 67.6721 42.8721Z" fill="#FFFFFF" fill-opacity="1.000000" fill-rule="nonzero"/>
		<path id="Vector" d="M39.3726 46.4717C39.0674 46.4897 38.7805 46.6235 38.5708 46.8462C38.3611 47.0684 38.2441 47.3623 38.2441 47.668C38.2441 47.9731 38.3611 48.2671 38.5708 48.4897C38.7805 48.7119 39.0674 48.8457 39.3726 48.8638L63.6316 48.8638C63.937 48.8457 64.2239 48.7119 64.4336 48.4897C64.6433 48.2671 64.7603 47.9731 64.7603 47.668C64.7603 47.3623 64.6433 47.0684 64.4336 46.8462C64.2239 46.6235 63.937 46.4897 63.6316 46.4717L39.3726 46.4717Z" fill="#FFFFFF" fill-opacity="1.000000" fill-rule="nonzero"/>
	</g>
</svg>
