<svg width="103.000000" height="103.000000" viewBox="0 0 103 103" fill="none" xmlns="http://www.w3.org/2000/svg" xmlns:xlink="http://www.w3.org/1999/xlink">
	<desc>
			Created with Pixso.
	</desc>
	<defs>
		<clipPath id="clip228_37">
			<rect id="buildings (2) 1" width="103.000000" height="103.000000" fill="white" fill-opacity="0"/>
		</clipPath>
	</defs>
	<rect id="buildings (2) 1" width="103.000000" height="103.000000" fill="#FFFFFF" fill-opacity="0"/>
	<g clip-path="url(#clip228_37)">
		<path id="Vector" d="M101.489 100.517L98.0898 100.517L98.0898 50.1929L100.181 50.1929C100.966 50.1929 101.489 49.6699 101.489 48.8857L101.489 40.9126C101.489 40.1279 100.966 39.6055 100.181 39.6055L92.208 39.6055L92.208 35.0303C92.208 34.2461 91.6851 33.7231 90.9009 33.7231L83.9731 33.7231C83.189 33.7231 82.666 34.2461 82.666 35.0303L82.666 39.6055L75.9998 39.6055L75.9998 17.3843L77.4377 17.3843C78.2219 17.3843 78.7449 16.8618 78.7449 16.0776L78.7449 7.31982C78.7449 6.53564 78.2219 6.0127 77.4377 6.0127L75.9998 6.0127L75.9998 1.30713C75.9998 0.522949 75.4771 0 74.6926 0L40.9695 0C40.1851 0 39.6624 0.522949 39.6624 1.30713L39.6624 6.0127L38.2244 6.0127C37.4402 6.0127 36.9172 6.53564 36.9172 7.31982L36.9172 16.0776C36.9172 16.8618 37.4402 17.3843 38.2244 17.3843L39.793 17.3843L39.793 21.3057L20.0557 21.3057L20.0557 16.8618C20.0557 16.0776 19.5327 15.5547 18.7485 15.5547L11.8208 15.5547C11.0366 15.5547 10.5137 16.0776 10.5137 16.8618L10.5137 21.3057L4.76245 21.3057C3.97827 21.3057 3.45532 21.8286 3.45532 22.6128L3.45532 31.3706C3.45532 32.1548 3.97827 32.6777 4.76245 32.6777L6.20044 32.6777L6.20044 100.386L1.62549 100.386C0.841309 100.386 0.318359 100.909 0.318359 101.693C0.318359 102.477 0.841309 103 1.62549 103L101.358 103C102.142 103 102.665 102.477 102.665 101.693C102.795 101.04 102.142 100.517 101.489 100.517ZM85.1497 36.3374L89.4631 36.3374L89.4631 39.6055L85.1497 39.6055L85.1497 36.3374ZM98.7434 42.2197L98.7434 47.5786L75.9998 47.5786L75.9998 42.2197L98.7434 42.2197ZM42.2764 2.4834L73.3857 2.4834L73.3857 5.88184L42.2764 5.88184L42.2764 2.4834ZM39.5315 14.7705L39.5315 8.62695L75.9998 8.62695L75.9998 14.7705L39.5315 14.7705ZM13.1279 18.1689L17.4414 18.1689L17.4414 21.3057L13.1279 21.3057L13.1279 18.1689ZM6.20044 23.9199L42.6687 23.9199L42.6687 30.0635L6.20044 30.0635L6.20044 23.9199ZM39.9236 100.517L8.81445 100.517L8.81445 32.6777L39.9236 32.6777L39.9236 100.517ZM73.3857 100.517L42.5378 100.517L42.5378 32.6777L43.9758 32.6777C44.76 32.6777 45.2827 32.1548 45.2827 31.3706L45.2827 22.6128C45.2827 21.8286 44.76 21.3057 43.9758 21.3057L42.5378 21.3057L42.5378 17.3843L73.3857 17.3843L73.3857 100.517ZM95.4758 100.517L95.345 100.517L75.9998 100.517L75.9998 50.1929L95.4758 50.1929L95.4758 100.517Z" fill="#FFFFFF" fill-opacity="1.000000" fill-rule="nonzero"/>
		<path id="Vector" d="M48.9426 39.6055C48.1584 39.6055 47.6355 40.1284 47.6355 40.9126L47.6355 46.7944C47.6355 47.4482 48.2891 48.1016 48.9426 48.1016C49.7268 48.1016 50.2498 47.5786 50.2498 46.7944L50.2498 40.9126C50.2498 40.1284 49.7268 39.6055 48.9426 39.6055Z" fill="#FFFFFF" fill-opacity="1.000000" fill-rule="nonzero"/>
		<path id="Vector" d="M58.0925 39.6055C57.3083 39.6055 56.7854 40.1284 56.7854 40.9126L56.7854 46.7944C56.7854 47.4482 57.3083 48.1016 58.0925 48.1016C58.8767 48.1016 59.3997 47.5786 59.3997 46.7944L59.3997 40.9126C59.3997 40.1284 58.8767 39.6055 58.0925 39.6055Z" fill="#FFFFFF" fill-opacity="1.000000" fill-rule="nonzero"/>
		<path id="Vector" d="M67.1113 39.6055C66.3271 39.6055 65.8042 40.1284 65.8042 40.9126L65.8042 46.7944C65.8042 47.4482 66.3271 48.1016 67.1113 48.1016C67.8955 48.1016 68.4185 47.5786 68.4185 46.7944L68.4185 40.9126C68.4185 40.1284 67.8955 39.6055 67.1113 39.6055Z" fill="#FFFFFF" fill-opacity="1.000000" fill-rule="nonzero"/>
		<path id="Vector" d="M48.9426 55.0293C48.1584 55.0293 47.6355 55.5522 47.6355 56.3364L47.6355 62.2183C47.6355 62.8721 48.2891 63.5254 48.9426 63.5254C49.7268 63.5254 50.2498 63.0024 50.2498 62.2183L50.2498 56.3364C50.2498 55.5522 49.7268 55.0293 48.9426 55.0293Z" fill="#FFFFFF" fill-opacity="1.000000" fill-rule="nonzero"/>
		<path id="Vector" d="M58.0925 55.0293C57.3083 55.0293 56.7854 55.5522 56.7854 56.3364L56.7854 62.2183C56.7854 62.8721 57.3083 63.5254 58.0925 63.5254C58.8767 63.5254 59.3997 63.0024 59.3997 62.2183L59.3997 56.3364C59.3997 55.5522 58.8767 55.0293 58.0925 55.0293Z" fill="#FFFFFF" fill-opacity="1.000000" fill-rule="nonzero"/>
		<path id="Vector" d="M67.1113 55.0293C66.3271 55.0293 65.8042 55.5522 65.8042 56.3364L65.8042 62.2183C65.8042 62.8721 66.3271 63.5254 67.1113 63.5254C67.8955 63.5254 68.4185 63.0024 68.4185 62.2183L68.4185 56.3364C68.4185 55.5522 67.8955 55.0293 67.1113 55.0293Z" fill="#FFFFFF" fill-opacity="1.000000" fill-rule="nonzero"/>
		<path id="Vector" d="M48.9426 24.1816C48.1584 24.1816 47.6355 24.7046 47.6355 25.4888L47.6355 31.3706C47.6355 32.1548 48.2891 32.6777 48.9426 32.6777C49.7268 32.6777 50.2498 32.1548 50.2498 31.3706L50.2498 25.4888C50.2498 24.7046 49.7268 24.1816 48.9426 24.1816Z" fill="#FFFFFF" fill-opacity="1.000000" fill-rule="nonzero"/>
		<path id="Vector" d="M58.0925 24.1816C57.3083 24.1816 56.7854 24.7046 56.7854 25.4888L56.7854 31.3706C56.7854 32.1548 57.3083 32.6777 58.0925 32.6777C58.8767 32.6777 59.3997 32.1548 59.3997 31.3706L59.3997 25.4888C59.3997 24.7046 58.8767 24.1816 58.0925 24.1816Z" fill="#FFFFFF" fill-opacity="1.000000" fill-rule="nonzero"/>
		<path id="Vector" d="M67.1113 24.1816C66.3271 24.1816 65.8042 24.7046 65.8042 25.4888L65.8042 31.3706C65.8042 32.1548 66.3271 32.6777 67.1113 32.6777C67.8955 32.6777 68.4185 32.1548 68.4185 31.3706L68.4185 25.4888C68.4185 24.7046 67.8955 24.1816 67.1113 24.1816Z" fill="#FFFFFF" fill-opacity="1.000000" fill-rule="nonzero"/>
		<path id="Vector" d="M48.9426 70.4531C48.1584 70.4531 47.6355 70.9761 47.6355 71.7603L47.6355 77.6421C47.6355 78.2959 48.2891 78.9492 48.9426 78.9492C49.7268 78.9492 50.2498 78.4263 50.2498 77.6421L50.2498 71.7603C50.2498 70.9761 49.7268 70.4531 48.9426 70.4531Z" fill="#FFFFFF" fill-opacity="1.000000" fill-rule="nonzero"/>
		<path id="Vector" d="M58.0925 70.4531C57.3083 70.4531 56.7854 70.9761 56.7854 71.7603L56.7854 77.6421C56.7854 78.2959 57.3083 78.9492 58.0925 78.9492C58.8767 78.9492 59.3997 78.4263 59.3997 77.6421L59.3997 71.7603C59.3997 70.9761 58.8767 70.4531 58.0925 70.4531Z" fill="#FFFFFF" fill-opacity="1.000000" fill-rule="nonzero"/>
		<path id="Vector" d="M67.1113 70.4531C66.3271 70.4531 65.8042 70.9761 65.8042 71.7603L65.8042 77.6421C65.8042 78.2959 66.3271 78.9492 67.1113 78.9492C67.8955 78.9492 68.4185 78.4263 68.4185 77.6421L68.4185 71.7603C68.4185 70.9761 67.8955 70.4531 67.1113 70.4531Z" fill="#FFFFFF" fill-opacity="1.000000" fill-rule="nonzero"/>
		<path id="Vector" d="M48.9426 85.877C48.1584 85.877 47.6355 86.3999 47.6355 87.1841L47.6355 93.0659C47.6355 93.7197 48.2891 94.373 48.9426 94.373C49.7268 94.373 50.2498 93.8501 50.2498 93.0659L50.2498 87.1841C50.2498 86.3999 49.7268 85.877 48.9426 85.877Z" fill="#FFFFFF" fill-opacity="1.000000" fill-rule="nonzero"/>
		<path id="Vector" d="M58.0925 85.877C57.3083 85.877 56.7854 86.3999 56.7854 87.1841L56.7854 93.0659C56.7854 93.7197 57.3083 94.373 58.0925 94.373C58.8767 94.373 59.3997 93.8501 59.3997 93.0659L59.3997 87.1841C59.3997 86.3999 58.8767 85.877 58.0925 85.877Z" fill="#FFFFFF" fill-opacity="1.000000" fill-rule="nonzero"/>
		<path id="Vector" d="M67.1113 85.877C66.3271 85.877 65.8042 86.3999 65.8042 87.1841L65.8042 93.0659C65.8042 93.7197 66.3271 94.373 67.1113 94.373C67.8955 94.373 68.4185 93.8501 68.4185 93.0659L68.4185 87.1841C68.4185 86.3999 67.8955 85.877 67.1113 85.877Z" fill="#FFFFFF" fill-opacity="1.000000" fill-rule="nonzero"/>
		<path id="Vector" d="M81.0977 55.0293C80.3135 55.0293 79.7905 55.5522 79.7905 56.3364L79.7905 62.2183C79.7905 62.8721 80.4441 63.5254 81.0977 63.5254C81.8818 63.5254 82.4048 63.0024 82.4048 62.2183L82.4048 56.3364C82.4048 55.5522 81.8818 55.0293 81.0977 55.0293Z" fill="#FFFFFF" fill-opacity="1.000000" fill-rule="nonzero"/>
		<path id="Vector" d="M90.2473 55.0293C89.4631 55.0293 88.9402 55.5522 88.9402 56.3364L88.9402 62.2183C88.9402 62.8721 89.4631 63.5254 90.2473 63.5254C91.0315 63.5254 91.5544 63.0024 91.5544 62.2183L91.5544 56.3364C91.5544 55.5522 91.0315 55.0293 90.2473 55.0293Z" fill="#FFFFFF" fill-opacity="1.000000" fill-rule="nonzero"/>
		<path id="Vector" d="M81.0977 70.4531C80.3135 70.4531 79.7905 70.9761 79.7905 71.7603L79.7905 77.6421C79.7905 78.2959 80.4441 78.9492 81.0977 78.9492C81.8818 78.9492 82.4048 78.4263 82.4048 77.6421L82.4048 71.7603C82.4048 70.9761 81.8818 70.4531 81.0977 70.4531Z" fill="#FFFFFF" fill-opacity="1.000000" fill-rule="nonzero"/>
		<path id="Vector" d="M90.2473 70.4531C89.4631 70.4531 88.9402 70.9761 88.9402 71.7603L88.9402 77.6421C88.9402 78.2959 89.4631 78.9492 90.2473 78.9492C91.0315 78.9492 91.5544 78.4263 91.5544 77.6421L91.5544 71.7603C91.5544 70.9761 91.0315 70.4531 90.2473 70.4531Z" fill="#FFFFFF" fill-opacity="1.000000" fill-rule="nonzero"/>
		<path id="Vector" d="M81.0977 85.877C80.3135 85.877 79.7905 86.3999 79.7905 87.1841L79.7905 93.0659C79.7905 93.7197 80.4441 94.373 81.0977 94.373C81.8818 94.373 82.4048 93.8501 82.4048 93.0659L82.4048 87.1841C82.4048 86.3999 81.8818 85.877 81.0977 85.877Z" fill="#FFFFFF" fill-opacity="1.000000" fill-rule="nonzero"/>
		<path id="Vector" d="M90.2473 85.877C89.4631 85.877 88.9402 86.3999 88.9402 87.1841L88.9402 93.0659C88.9402 93.7197 89.4631 94.373 90.2473 94.373C91.0315 94.373 91.5544 93.8501 91.5544 93.0659L91.5544 87.1841C91.5544 86.3999 91.0315 85.877 90.2473 85.877Z" fill="#FFFFFF" fill-opacity="1.000000" fill-rule="nonzero"/>
		<path id="Vector" d="M15.3501 39.6055C14.5659 39.6055 14.043 40.1284 14.043 40.9126L14.043 46.7944C14.043 47.4482 14.5659 48.1016 15.3501 48.1016C16.1343 48.1016 16.6572 47.5786 16.6572 46.7944L16.6572 40.9126C16.6572 40.1284 16.1343 39.6055 15.3501 39.6055Z" fill="#FFFFFF" fill-opacity="1.000000" fill-rule="nonzero"/>
		<path id="Vector" d="M24.3691 39.6055C23.585 39.6055 23.062 40.1284 23.062 40.9126L23.062 46.7944C23.062 47.4482 23.7156 48.1016 24.3691 48.1016C25.1533 48.1016 25.6763 47.5786 25.6763 46.7944L25.6763 40.9126C25.6763 40.1284 25.1533 39.6055 24.3691 39.6055Z" fill="#FFFFFF" fill-opacity="1.000000" fill-rule="nonzero"/>
		<path id="Vector" d="M33.3882 39.6055C32.604 39.6055 32.0811 40.1284 32.0811 40.9126L32.0811 46.7944C32.0811 47.4482 32.7346 48.1016 33.3882 48.1016C34.1724 48.1016 34.6953 47.5786 34.6953 46.7944L34.6953 40.9126C34.6953 40.1284 34.1724 39.6055 33.3882 39.6055Z" fill="#FFFFFF" fill-opacity="1.000000" fill-rule="nonzero"/>
		<path id="Vector" d="M15.3501 55.0293C14.5659 55.0293 14.043 55.5522 14.043 56.3364L14.043 62.2183C14.043 62.8721 14.5659 63.5254 15.3501 63.5254C16.1343 63.5254 16.6572 63.0024 16.6572 62.2183L16.6572 56.3364C16.6572 55.5522 16.1343 55.0293 15.3501 55.0293Z" fill="#FFFFFF" fill-opacity="1.000000" fill-rule="nonzero"/>
		<path id="Vector" d="M24.3691 55.0293C23.585 55.0293 23.062 55.5522 23.062 56.3364L23.062 62.2183C23.062 62.8721 23.7156 63.5254 24.3691 63.5254C25.1533 63.5254 25.6763 63.0024 25.6763 62.2183L25.6763 56.3364C25.6763 55.5522 25.1533 55.0293 24.3691 55.0293Z" fill="#FFFFFF" fill-opacity="1.000000" fill-rule="nonzero"/>
		<path id="Vector" d="M33.3882 55.0293C32.604 55.0293 32.0811 55.5522 32.0811 56.3364L32.0811 62.2183C32.0811 62.8721 32.7346 63.5254 33.3882 63.5254C34.1724 63.5254 34.6953 63.0024 34.6953 62.2183L34.6953 56.3364C34.6953 55.5522 34.1724 55.0293 33.3882 55.0293Z" fill="#FFFFFF" fill-opacity="1.000000" fill-rule="nonzero"/>
		<path id="Vector" d="M15.3501 70.4531C14.5659 70.4531 14.043 70.9761 14.043 71.7603L14.043 77.6421C14.043 78.2959 14.5659 78.9492 15.3501 78.9492C16.1343 78.9492 16.6572 78.4263 16.6572 77.6421L16.6572 71.7603C16.6572 70.9761 16.1343 70.4531 15.3501 70.4531Z" fill="#FFFFFF" fill-opacity="1.000000" fill-rule="nonzero"/>
		<path id="Vector" d="M24.3691 70.4531C23.585 70.4531 23.062 70.9761 23.062 71.7603L23.062 77.6421C23.062 78.2959 23.7156 78.9492 24.3691 78.9492C25.1533 78.9492 25.6763 78.4263 25.6763 77.6421L25.6763 71.7603C25.6763 70.9761 25.1533 70.4531 24.3691 70.4531Z" fill="#FFFFFF" fill-opacity="1.000000" fill-rule="nonzero"/>
		<path id="Vector" d="M33.3882 70.4531C32.604 70.4531 32.0811 70.9761 32.0811 71.7603L32.0811 77.6421C32.0811 78.2959 32.7346 78.9492 33.3882 78.9492C34.1724 78.9492 34.6953 78.4263 34.6953 77.6421L34.6953 71.7603C34.6953 70.9761 34.1724 70.4531 33.3882 70.4531Z" fill="#FFFFFF" fill-opacity="1.000000" fill-rule="nonzero"/>
		<path id="Vector" d="M15.3501 85.877C14.5659 85.877 14.043 86.3999 14.043 87.1841L14.043 93.0659C14.043 93.7197 14.5659 94.373 15.3501 94.373C16.1343 94.373 16.6572 93.8501 16.6572 93.0659L16.6572 87.1841C16.6572 86.3999 16.1343 85.877 15.3501 85.877Z" fill="#FFFFFF" fill-opacity="1.000000" fill-rule="nonzero"/>
		<path id="Vector" d="M24.3691 85.877C23.585 85.877 23.062 86.3999 23.062 87.1841L23.062 93.0659C23.062 93.7197 23.7156 94.373 24.3691 94.373C25.1533 94.373 25.6763 93.8501 25.6763 93.0659L25.6763 87.1841C25.6763 86.3999 25.1533 85.877 24.3691 85.877Z" fill="#FFFFFF" fill-opacity="1.000000" fill-rule="nonzero"/>
		<path id="Vector" d="M33.3882 85.877C32.604 85.877 32.0811 86.3999 32.0811 87.1841L32.0811 93.0659C32.0811 93.7197 32.7346 94.373 33.3882 94.373C34.1724 94.373 34.6953 93.8501 34.6953 93.0659L34.6953 87.1841C34.6953 86.3999 34.1724 85.877 33.3882 85.877Z" fill="#FFFFFF" fill-opacity="1.000000" fill-rule="nonzero"/>
	</g>
</svg>
