<svg width="85.000000" height="85.000000" viewBox="0 0 85 85" fill="none" xmlns="http://www.w3.org/2000/svg" xmlns:xlink="http://www.w3.org/1999/xlink">
	<desc>
			Created with Pixso.
	</desc>
	<defs>
		<clipPath id="clip204_0">
			<rect id="stopwatch (17) 1" width="85.000000" height="85.000000" fill="white" fill-opacity="0"/>
		</clipPath>
	</defs>
	<rect id="stopwatch (17) 1" width="85.000000" height="85.000000" fill="#FFFFFF" fill-opacity="0"/>
	<g clip-path="url(#clip204_0)">
		<path id="Vector" d="M75.4661 45.7001C75.1836 45.6998 74.9111 45.5955 74.7007 45.4069C74.4902 45.2183 74.3567 44.9587 74.3257 44.6778C74.1995 43.5549 74.0076 42.4404 73.7512 41.3398C73.6826 41.043 73.7346 40.731 73.896 40.4725C74.0574 40.214 74.3147 40.0302 74.6116 39.9615C74.9084 39.8928 75.2205 39.9448 75.479 40.1061C75.7375 40.2675 75.9214 40.525 75.99 40.8218C76.2659 42.0095 76.4727 43.2123 76.6091 44.424C76.6414 44.7261 76.5525 45.0286 76.3623 45.2654C76.1719 45.5022 75.8955 45.654 75.5938 45.6875C75.5515 45.6946 75.509 45.6988 75.4661 45.7001Z" fill="#00BDA0" fill-opacity="1.000000" fill-rule="nonzero"/>
		<path id="Vector" d="M42.615 82.7026C33.5347 82.7017 24.8264 79.0939 18.4058 72.6727C11.9854 66.2516 8.37842 57.543 8.37842 48.4626C8.38818 39.3853 11.9993 30.6827 18.4189 24.2652C24.8386 17.8477 33.5422 14.2396 42.6196 14.2328C49.9924 14.2084 57.1716 16.592 63.0657 21.0214C67.0623 23.9987 70.3655 27.8075 72.7476 32.1851C72.8225 32.3179 72.8704 32.4643 72.8882 32.6158C72.906 32.7673 72.8936 32.9208 72.8513 33.0674C72.8093 33.214 72.7383 33.3508 72.6428 33.4697C72.5474 33.5886 72.429 33.6872 72.2949 33.7599C72.1609 33.8326 72.0134 33.8779 71.8618 33.8931C71.71 33.9082 71.5566 33.893 71.4109 33.8483C71.2651 33.8036 71.1296 33.7303 71.0125 33.6327C70.895 33.5351 70.7986 33.4151 70.7283 33.2797C68.5044 29.1951 65.4214 25.6411 61.6919 22.8627C56.1826 18.7523 49.4932 16.5317 42.6196 16.5317C35.7461 16.5317 29.0566 18.7523 23.5474 22.8627C18.9932 26.2507 15.4246 30.7919 13.2095 36.0181C10.9944 41.2444 10.2129 46.9668 10.9453 52.5956C11.678 58.2245 13.8982 63.5563 17.3772 68.0414C20.8562 72.5267 25.4683 76.0032 30.738 78.1127C38.3621 81.1658 46.8691 81.1658 54.4932 78.1127C61.2173 75.4197 66.8245 70.518 70.3916 64.214C70.4658 64.0826 70.5652 63.9671 70.6838 63.8741C70.8027 63.7811 70.9385 63.7124 71.084 63.6719C71.2292 63.6315 71.3811 63.62 71.5308 63.6382C71.6807 63.6564 71.8252 63.704 71.9568 63.7781C72.0881 63.8522 72.2036 63.9515 72.2966 64.0703C72.3896 64.1891 72.4583 64.325 72.4988 64.4703C72.5393 64.6157 72.5508 64.7675 72.5325 64.9173C72.5142 65.067 72.4668 65.2117 72.3926 65.3431C68.5696 72.1025 62.5596 77.3591 55.3513 80.248C51.304 81.8805 46.979 82.7141 42.615 82.7026Z" fill="#00BDA0" fill-opacity="1.000000" fill-rule="nonzero"/>
		<path id="Vector" d="M74.7449 57.5887C74.571 57.5887 74.3992 57.5493 74.2429 57.4733C74.0864 57.3973 73.9492 57.2868 73.8418 57.1501C73.7341 57.0134 73.6592 56.854 73.6221 56.6841C73.5852 56.5141 73.5874 56.338 73.6284 56.1689C73.9084 55.0452 74.123 53.9061 74.2717 52.7574C74.3105 52.4551 74.4678 52.1806 74.709 51.9943C74.9504 51.8079 75.2559 51.725 75.5581 51.7639C75.8604 51.8027 76.135 51.9601 76.3213 52.2014C76.5076 52.4426 76.5906 52.748 76.5518 53.0504C76.3926 54.2878 76.1626 55.5151 75.8625 56.7261C75.7988 56.9738 75.6543 57.1931 75.4519 57.3494C75.2495 57.5056 75.0005 57.5898 74.7449 57.5887Z" fill="#00BDA0" fill-opacity="1.000000" fill-rule="nonzero"/>
		<path id="Vector" d="M42.615 75.8649C37.196 75.864 31.8994 74.2562 27.3943 71.2449C22.8892 68.2336 19.3784 63.954 17.3057 58.9474C15.2329 53.9407 14.6912 48.4318 15.7493 43.1174C16.8074 37.8029 19.4177 32.9216 23.2502 29.0906C27.0825 25.2597 31.9648 22.6512 37.2798 21.5951C42.5945 20.539 48.1033 21.0826 53.1091 23.1573C58.115 25.232 62.3933 28.7445 65.4028 33.2507C68.4124 37.7568 70.0183 43.0543 70.0171 48.473C70.0073 55.7366 67.1169 62.6997 61.9797 67.8348C56.8428 72.97 49.8784 75.8578 42.615 75.8649ZM42.615 23.3716C37.6509 23.3725 32.7983 24.8453 28.6714 27.6039C24.5442 30.3625 21.3279 34.2828 19.4287 38.8693C17.5295 43.4558 17.033 48.5024 18.002 53.3711C18.9709 58.2397 21.3618 62.7117 24.8721 66.2217C28.3826 69.7316 32.855 72.1218 37.7236 73.09C42.5925 74.0583 47.6389 73.5611 52.2253 71.6614C56.8115 69.7617 60.7314 66.5447 63.4893 62.4172C66.2473 58.2897 67.7195 53.4371 67.7197 48.473C67.7136 41.8166 65.0669 35.4344 60.3601 30.7275C55.6533 26.0206 49.2715 23.3734 42.615 23.367L42.615 23.3716Z" fill="#00BDA0" fill-opacity="1.000000" fill-rule="nonzero"/>
		<path id="Vector" d="M46.342 16.7174C46.0376 16.7174 45.7454 16.5964 45.53 16.381C45.3145 16.1655 45.1936 15.8734 45.1936 15.5687L45.1936 11.2188L40.0442 11.2188L40.0442 15.5687C40.0442 15.8734 39.9231 16.1655 39.7078 16.381C39.4922 16.5964 39.2002 16.7174 38.8955 16.7174C38.5908 16.7174 38.2986 16.5964 38.0833 16.381C37.8679 16.1655 37.7468 15.8734 37.7468 15.5687L37.7468 10.0701C37.7468 9.7655 37.8679 9.47333 38.0833 9.25793C38.2986 9.04254 38.5908 8.92151 38.8955 8.92151L46.342 8.92151C46.6467 8.92151 46.939 9.04254 47.1543 9.25793C47.3699 9.47333 47.4907 9.7655 47.4907 10.0701L47.4907 15.5687C47.4907 15.8734 47.3699 16.1655 47.1543 16.381C46.939 16.5964 46.6467 16.7174 46.342 16.7174Z" fill="#00BDA0" fill-opacity="1.000000" fill-rule="nonzero"/>
		<path id="Vector" d="M49.9329 11.2188L35.3037 11.2188C34.8308 11.2182 34.3777 11.03 34.0435 10.6956C33.7092 10.3611 33.5212 9.90778 33.521 9.43494L33.521 4.08112C33.5212 3.60828 33.7092 3.15491 34.0435 2.82043C34.3777 2.48602 34.8308 2.29785 35.3037 2.29724L49.9329 2.29724C50.4058 2.29785 50.8589 2.48602 51.1931 2.82043C51.5273 3.15491 51.7153 3.60828 51.7156 4.08112L51.7156 9.43494C51.7153 9.90778 51.5273 10.3611 51.1931 10.6956C50.8589 11.03 50.4058 11.2182 49.9329 11.2188ZM35.8184 8.92151L49.4182 8.92151L49.4182 4.59454L35.8184 4.59454L35.8184 8.92151Z" fill="#00BDA0" fill-opacity="1.000000" fill-rule="nonzero"/>
		<path id="Vector" d="M62.3831 23.0878C62.1689 23.0876 61.959 23.0273 61.7771 22.914C61.5952 22.8007 61.4485 22.6387 61.354 22.4464C61.2593 22.2542 61.2202 22.0392 61.2415 21.826C61.2625 21.6127 61.343 21.4096 61.4734 21.2396L64.3105 17.549C64.4966 17.3074 64.7712 17.1497 65.0737 17.1105C65.376 17.0713 65.6816 17.1538 65.9233 17.34C66.1648 17.5261 66.3225 17.8006 66.3618 18.103C66.4009 18.4055 66.3184 18.7111 66.1323 18.9527L63.2905 22.6444C63.1831 22.7826 63.0454 22.8943 62.8882 22.9712C62.731 23.048 62.5581 23.088 62.3831 23.0878Z" fill="#00BDA0" fill-opacity="1.000000" fill-rule="nonzero"/>
		<path id="Vector" d="M68.751 21.8967C68.3896 21.8968 68.0383 21.7795 67.7495 21.5625L61.3274 16.7852C60.9702 16.5192 60.7334 16.1221 60.6687 15.6815C60.604 15.2408 60.717 14.7925 60.9827 14.4351L63.1755 11.4865C63.4414 11.1295 63.8381 10.8926 64.2786 10.8279C64.7192 10.7634 65.1672 10.8763 65.5244 11.1419L71.949 15.9214C72.126 16.0529 72.2756 16.2181 72.3889 16.4075C72.5022 16.5968 72.5769 16.8067 72.6089 17.025C72.6409 17.2433 72.6296 17.4658 72.5754 17.6797C72.5212 17.8937 72.4255 18.0948 72.2935 18.2716L70.1006 21.2202C69.9695 21.3978 69.8042 21.5476 69.6145 21.6608C69.4248 21.774 69.2144 21.8483 68.9956 21.8795C68.9148 21.8914 68.833 21.8972 68.751 21.8967ZM63.1951 15.3115L68.627 19.3513L70.0823 17.3986L64.6504 13.3565L63.1951 15.3115Z" fill="#00BDA0" fill-opacity="1.000000" fill-rule="nonzero"/>
		<path id="Vector" d="M22.8582 23.0878C22.6824 23.088 22.5085 23.0476 22.3506 22.9699C22.1926 22.8923 22.0547 22.7793 21.9475 22.6399L19.1057 18.9527C18.9199 18.7111 18.8379 18.4057 18.8774 18.1036C18.917 17.8015 19.075 17.5274 19.3164 17.3417C19.5581 17.1561 19.8635 17.074 20.1655 17.1135C20.4678 17.153 20.7417 17.3109 20.9275 17.5525L23.7646 21.2431C23.8938 21.4129 23.9734 21.6153 23.9941 21.8278C24.0149 22.0402 23.9758 22.2542 23.8818 22.4457C23.7876 22.6373 23.6421 22.7988 23.4612 22.9122C23.2805 23.0256 23.0718 23.0865 22.8582 23.0878Z" fill="#00BDA0" fill-opacity="1.000000" fill-rule="nonzero"/>
		<path id="Vector" d="M16.4878 21.8966C16.4055 21.8967 16.3232 21.8906 16.2419 21.8782C16.0234 21.8472 15.8135 21.7729 15.6238 21.66C15.4343 21.547 15.2693 21.3975 15.1379 21.22L12.9429 18.2703C12.678 17.9127 12.5652 17.4645 12.6299 17.0241C12.6943 16.5836 12.9309 16.1866 13.2876 15.9202L19.7119 11.1418C20.0691 10.8792 20.5154 10.7681 20.9539 10.8326C21.3923 10.8972 21.7878 11.1321 22.054 11.4864L24.249 14.4362C24.5129 14.794 24.6248 15.2416 24.5603 15.6816C24.4958 16.1215 24.26 16.5181 23.9045 16.7851L17.4722 21.5646C17.188 21.7777 16.843 21.894 16.4878 21.8966ZM15.1541 17.3951L16.6106 19.3478L22.0425 15.3114L20.5872 13.3587L15.1541 17.3951Z" fill="#00BDA0" fill-opacity="1.000000" fill-rule="nonzero"/>
		<path id="Vector" d="M42.615 30.0865C42.3103 30.0865 42.0181 29.9655 41.8027 29.7501C41.5874 29.5347 41.4663 29.2425 41.4663 28.9379L41.4663 27.9787C41.4663 27.6741 41.5874 27.3819 41.8027 27.1665C42.0181 26.9511 42.3103 26.8301 42.615 26.8301C42.9197 26.8301 43.2117 26.9511 43.4272 27.1665C43.6426 27.3819 43.7637 27.6741 43.7637 27.9787L43.7637 28.9379C43.7637 29.2425 43.6426 29.5347 43.4272 29.7501C43.2117 29.9655 42.9197 30.0865 42.615 30.0865Z" fill="#00BDA0" fill-opacity="1.000000" fill-rule="nonzero"/>
		<path id="Vector" d="M28.8093 35.8068C28.5046 35.8068 28.2124 35.6857 27.9971 35.4703L27.3193 34.7925C27.2129 34.6858 27.1282 34.559 27.0706 34.4196C27.0129 34.28 26.9834 34.1306 26.9834 33.9797C26.9834 33.8287 27.0134 33.6793 27.0713 33.5399C27.1292 33.4005 27.2139 33.2739 27.3206 33.1672C27.4275 33.0605 27.5542 32.976 27.6936 32.9183C27.833 32.8607 27.9827 32.8311 28.1335 32.8312C28.2844 32.8313 28.4338 32.8611 28.5732 32.9189C28.7126 32.9768 28.8394 33.0616 28.946 33.1684L29.6235 33.8461C29.7842 34.0067 29.8936 34.2114 29.938 34.4341C29.9822 34.6569 29.9595 34.8878 29.8726 35.0977C29.7856 35.3076 29.6384 35.4869 29.4495 35.6132C29.2607 35.7394 29.0386 35.8068 28.8115 35.8068L28.8093 35.8068Z" fill="#00BDA0" fill-opacity="1.000000" fill-rule="nonzero"/>
		<path id="Vector" d="M23.0876 49.6216L22.1287 49.6216C21.824 49.6216 21.5317 49.5006 21.3164 49.2852C21.1011 49.0698 20.98 48.7776 20.98 48.473C20.98 48.1683 21.1011 47.8762 21.3164 47.6608C21.5317 47.4454 21.824 47.3243 22.1287 47.3243L23.0876 47.3243C23.3923 47.3243 23.6846 47.4454 23.8999 47.6608C24.1155 47.8762 24.2363 48.1683 24.2363 48.473C24.2363 48.7776 24.1155 49.0698 23.8999 49.2852C23.6846 49.5006 23.3923 49.6216 23.0876 49.6216Z" fill="#00BDA0" fill-opacity="1.000000" fill-rule="nonzero"/>
		<path id="Vector" d="M28.1316 64.1026C27.9043 64.1025 27.6824 64.0352 27.4937 63.9089C27.3047 63.7827 27.1575 63.6033 27.0706 63.3935C26.9836 63.1837 26.9609 62.9527 27.0051 62.7299C27.0496 62.5071 27.1589 62.3025 27.3196 62.1418L27.9971 61.4642C28.2139 61.2549 28.5039 61.1392 28.8052 61.1418C29.1062 61.1444 29.3943 61.2652 29.6074 61.4781C29.8203 61.6911 29.9412 61.9792 29.9438 62.2804C29.9463 62.5815 29.8306 62.8717 29.6213 63.0884L28.9436 63.7661C28.7283 63.9815 28.4363 64.1025 28.1316 64.1026Z" fill="#00BDA0" fill-opacity="1.000000" fill-rule="nonzero"/>
		<path id="Vector" d="M42.615 70.1031C42.3103 70.1031 42.0181 69.9821 41.8027 69.7667C41.5874 69.5513 41.4663 69.2592 41.4663 68.9545L41.4663 68C41.4663 67.6953 41.5874 67.4031 41.8027 67.1877C42.0181 66.9724 42.3103 66.8513 42.615 66.8513C42.9197 66.8513 43.2117 66.9724 43.4272 67.1877C43.6426 67.4031 43.7637 67.6953 43.7637 68L43.7637 68.9579C43.7627 69.262 43.6414 69.5533 43.426 69.7679C43.2107 69.9826 42.9189 70.1031 42.615 70.1031Z" fill="#00BDA0" fill-opacity="1.000000" fill-rule="nonzero"/>
		<path id="Vector" d="M57.1062 64.1026C56.8015 64.1025 56.5095 63.9815 56.2942 63.7661L55.6165 63.0884C55.4072 62.8717 55.2913 62.5815 55.2939 62.2804C55.2966 61.9792 55.4175 61.6911 55.6304 61.4781C55.8433 61.2652 56.1313 61.1444 56.4326 61.1418C56.7339 61.1392 57.0239 61.2549 57.2405 61.4642L57.9182 62.1418C58.0789 62.3025 58.1882 62.5071 58.2324 62.7299C58.2769 62.9527 58.2542 63.1837 58.1672 63.3935C58.0803 63.6033 57.9331 63.7827 57.7441 63.9089C57.5554 64.0352 57.3333 64.1025 57.1062 64.1026Z" fill="#00BDA0" fill-opacity="1.000000" fill-rule="nonzero"/>
		<path id="Vector" d="M63.1057 49.6216L62.1477 49.6216C61.843 49.6216 61.5508 49.5006 61.3354 49.2852C61.1201 49.0698 60.999 48.7776 60.999 48.473C60.999 48.1683 61.1201 47.8762 61.3354 47.6608C61.5508 47.4454 61.843 47.3243 62.1477 47.3243L63.1057 47.3243C63.4104 47.3243 63.7024 47.4454 63.918 47.6608C64.1333 47.8762 64.2544 48.1683 64.2544 48.473C64.2544 48.7776 64.1333 49.0698 63.918 49.2852C63.7024 49.5006 63.4104 49.6216 63.1057 49.6216Z" fill="#00BDA0" fill-opacity="1.000000" fill-rule="nonzero"/>
		<path id="Vector" d="M56.4287 35.8068C56.2014 35.8067 55.9795 35.7393 55.7905 35.6131C55.6018 35.4869 55.4546 35.3075 55.3677 35.0977C55.2808 34.8878 55.2581 34.6569 55.3022 34.4341C55.3467 34.2113 55.4561 34.0067 55.6167 33.846L56.2942 33.1683C56.4001 33.0586 56.5271 32.9711 56.6672 32.9109C56.8074 32.8507 56.958 32.819 57.1106 32.8177C57.2629 32.8163 57.4143 32.8454 57.5554 32.9031C57.6965 32.9609 57.825 33.0462 57.9326 33.1541C58.0405 33.2619 58.1257 33.3901 58.1836 33.5313C58.2415 33.6725 58.2705 33.8237 58.269 33.9763C58.2678 34.1288 58.2361 34.2795 58.1758 34.4196C58.1157 34.5598 58.0281 34.6865 57.9185 34.7925L57.2407 35.4702C57.0254 35.6856 56.7334 35.8067 56.4287 35.8068Z" fill="#00BDA0" fill-opacity="1.000000" fill-rule="nonzero"/>
		<path id="Vector" d="M38.7476 53.2215C38.5203 53.2214 38.2983 53.1541 38.1096 53.0278C37.9207 52.9016 37.7734 52.7222 37.6865 52.5124C37.5996 52.3026 37.5769 52.0716 37.6211 51.8488C37.6655 51.626 37.7749 51.4214 37.9355 51.2607L41.4663 47.7264L41.4663 34.4675C41.4663 34.1628 41.5874 33.8707 41.8027 33.6553C42.0183 33.4399 42.3103 33.3188 42.615 33.3188C42.9197 33.3188 43.2119 33.4399 43.4272 33.6553C43.6426 33.8707 43.7637 34.1628 43.7637 34.4675L43.7637 48.2019C43.7637 48.5065 43.6426 48.7986 43.4272 49.014L39.5596 52.8861C39.344 53.1011 39.052 53.2217 38.7476 53.2215Z" fill="#00BDA0" fill-opacity="1.000000" fill-rule="nonzero"/>
	</g>
</svg>
