<svg width="75.000000" height="75.000000" viewBox="0 0 75 75" fill="none" xmlns="http://www.w3.org/2000/svg" xmlns:xlink="http://www.w3.org/1999/xlink">
	<desc>
			Created with Pixso.
	</desc>
	<defs>
		<clipPath id="clip204_56">
			<rect id="24-hours (4) 1" width="75.000000" height="75.000000" fill="white" fill-opacity="0"/>
		</clipPath>
	</defs>
	<rect id="24-hours (4) 1" width="75.000000" height="75.000000" fill="#FFFFFF" fill-opacity="0"/>
	<g clip-path="url(#clip204_56)">
		<path id="Vector" d="M38.5425 15.4355C37.9346 15.4355 37.4421 14.9429 37.4421 14.3353L37.4421 10.364C37.4421 9.75629 37.9346 9.26367 38.5425 9.26367C39.1501 9.26367 39.6426 9.75629 39.6426 10.364L39.6426 14.3353C39.6426 14.9429 39.1501 15.4355 38.5425 15.4355Z" fill="#00BDA0" fill-opacity="1.000000" fill-rule="nonzero"/>
		<path id="Vector" d="M38.5425 65.7365C37.9346 65.7365 37.4421 65.2438 37.4421 64.6362L37.4421 60.6649C37.4421 60.0572 37.9346 59.5646 38.5425 59.5646C39.1501 59.5646 39.6426 60.0572 39.6426 60.6649L39.6426 64.6362C39.6426 65.2438 39.1501 65.7365 38.5425 65.7365Z" fill="#00BDA0" fill-opacity="1.000000" fill-rule="nonzero"/>
		<path id="Vector" d="M26.9609 18.5393C26.5806 18.5393 26.2107 18.342 26.0071 17.989L24.0215 14.5497C23.7175 14.0235 23.8979 13.3506 24.4241 13.0468C24.9502 12.743 25.6233 12.9231 25.927 13.4495L27.9126 16.8887C28.2166 17.415 28.0361 18.0879 27.51 18.3917C27.3369 18.4918 27.1475 18.5393 26.9609 18.5393Z" fill="#00BDA0" fill-opacity="1.000000" fill-rule="nonzero"/>
		<path id="Vector" d="M52.1116 62.101C51.7312 62.101 51.3613 61.9036 51.1577 61.5507L49.1721 58.1114C48.8682 57.5851 49.0486 56.9122 49.5747 56.6085C50.1008 56.3046 50.7739 56.4847 51.0776 57.0111L53.0632 60.4504C53.3672 60.9766 53.1868 61.6495 52.6606 61.9534C52.4873 62.0534 52.2981 62.101 52.1116 62.101Z" fill="#00BDA0" fill-opacity="1.000000" fill-rule="nonzero"/>
		<path id="Vector" d="M18.48 27.0182C18.2932 27.0182 18.104 26.9707 17.9309 26.8706L14.4917 24.8849C13.9656 24.5811 13.7852 23.9081 14.0891 23.3819C14.3926 22.8555 15.0657 22.6752 15.592 22.9792L19.031 24.965C19.5574 25.2688 19.7375 25.9417 19.4338 26.468C19.23 26.8209 18.8601 27.0182 18.48 27.0182Z" fill="#00BDA0" fill-opacity="1.000000" fill-rule="nonzero"/>
		<path id="Vector" d="M62.0417 52.1686C61.855 52.1686 61.6658 52.1211 61.4927 52.021L58.0535 50.0353C57.5273 49.7314 57.3469 49.0585 57.6509 48.5323C57.9543 48.0059 58.6274 47.8256 59.1538 48.1296L62.5928 50.1154C63.1191 50.4192 63.2993 51.0921 62.9956 51.6183C62.7917 51.9713 62.4219 52.1686 62.0417 52.1686Z" fill="#00BDA0" fill-opacity="1.000000" fill-rule="nonzero"/>
		<path id="Vector" d="M15.3774 38.6002L11.4062 38.6002C10.7983 38.6002 10.3059 38.1075 10.3059 37.4999C10.3059 36.8923 10.7983 36.3997 11.4062 36.3997L15.3774 36.3997C15.9854 36.3997 16.4778 36.8923 16.4778 37.4999C16.4778 38.1075 15.9854 38.6002 15.3774 38.6002Z" fill="#00BDA0" fill-opacity="1.000000" fill-rule="nonzero"/>
		<path id="Vector" d="M65.6782 38.6002L61.707 38.6002C61.0991 38.6002 60.6067 38.1075 60.6067 37.4999C60.6067 36.8923 61.0991 36.3997 61.707 36.3997L65.6782 36.3997C66.2861 36.3997 66.7786 36.8923 66.7786 37.4999C66.7786 38.1075 66.2861 38.6002 65.6782 38.6002Z" fill="#00BDA0" fill-opacity="1.000000" fill-rule="nonzero"/>
		<path id="Vector" d="M15.0427 52.1686C14.6626 52.1686 14.293 51.9713 14.0891 51.6183C13.7852 51.092 13.9656 50.4191 14.4917 50.1154L17.9309 48.1296C18.4568 47.8259 19.1299 48.006 19.4338 48.5323C19.7375 49.0585 19.5574 49.7314 19.031 50.0352L15.592 52.021C15.4189 52.1209 15.2295 52.1686 15.0427 52.1686Z" fill="#00BDA0" fill-opacity="1.000000" fill-rule="nonzero"/>
		<path id="Vector" d="M58.6042 27.0182C58.2241 27.0182 57.8545 26.8209 57.6506 26.4679C57.3467 25.9417 57.5271 25.2688 58.0532 24.965L61.4924 22.9792C62.0183 22.6755 62.6914 22.8555 62.9954 23.3819C63.2991 23.9081 63.1189 24.5811 62.5925 24.8849L59.1536 26.8706C58.9805 26.9705 58.791 27.0182 58.6042 27.0182Z" fill="#00BDA0" fill-opacity="1.000000" fill-rule="nonzero"/>
		<path id="Vector" d="M24.9731 62.101C24.7866 62.101 24.5974 62.0535 24.4241 61.9534C23.8979 61.6496 23.7175 60.9767 24.0215 60.4504L26.0071 57.0112C26.3105 56.4849 26.9834 56.3045 27.51 56.6085C28.0361 56.9123 28.2166 57.5852 27.9126 58.1115L25.927 61.5507C25.7234 61.9037 25.3535 62.101 24.9731 62.101Z" fill="#00BDA0" fill-opacity="1.000000" fill-rule="nonzero"/>
		<path id="Vector" d="M50.1238 18.5393C49.9373 18.5393 49.748 18.4918 49.5747 18.3917C49.0486 18.088 48.8682 17.415 49.1721 16.8888L51.1577 13.4495C51.4612 12.9233 52.134 12.7429 52.6606 13.0468C53.1868 13.3506 53.3672 14.0236 53.0632 14.5498L51.0776 17.9891C50.8738 18.3419 50.5042 18.5393 50.1238 18.5393Z" fill="#00BDA0" fill-opacity="1.000000" fill-rule="nonzero"/>
		<path id="Vector" d="M32.8457 27.5244C35.6223 27.5244 38.2075 29.3435 38.2075 32.3835C38.2075 37.5536 30.6196 39.2291 30.6196 41.7185L30.6196 42.293L37.2739 42.293C37.8005 42.293 38.2551 42.9153 38.2551 43.6334C38.2551 44.3515 37.8003 45.0217 37.2739 45.0217L28.7527 45.0217C28.2021 45.0217 27.3882 44.6388 27.3882 44.0403L27.3882 41.7185C27.3882 37.8887 35.0957 35.8541 35.0957 32.4792C35.0957 31.498 34.4495 30.349 32.8696 30.349C31.6968 30.349 30.7393 30.9713 30.7393 32.4553C30.7393 33.0298 30.1409 33.6043 29.1116 33.6043C28.2979 33.6043 27.6992 33.2214 27.6992 31.9288C27.6992 29.1999 30.189 27.5244 32.8457 27.5244Z" fill="#00BDA0" fill-opacity="1.000000" fill-rule="nonzero"/>
		<path id="Vector" d="M45.1008 41.2159L39.3562 41.2159C38.7578 41.2159 38.303 40.809 38.303 40.1149C38.303 39.9235 38.3508 39.7079 38.4705 39.4926L44.1436 28.3383C44.4307 27.7399 44.9573 27.5245 45.46 27.5245C46.0105 27.5245 47.0156 28.0032 47.0156 28.7213C47.0156 28.8409 46.968 28.9845 46.8962 29.1281L42.3005 38.3196L45.1011 38.3196L45.1011 35.8063C45.1011 35.1121 45.8909 34.8248 46.6567 34.8248C47.4468 34.8248 48.2126 35.1121 48.2126 35.8063L48.2126 38.3196L49.3376 38.3196C49.9839 38.3196 50.3188 39.0377 50.3188 39.7797C50.3188 40.4978 49.8401 41.2159 49.3376 41.2159L48.2126 41.2159L48.2126 44.0403C48.2126 44.6866 47.4465 45.0216 46.6567 45.0216C45.8906 45.0216 45.1011 44.6866 45.1011 44.0403L45.1011 41.2159L45.1008 41.2159Z" fill="#00BDA0" fill-opacity="1.000000" fill-rule="nonzero"/>
		<path id="Vector" d="M73.2249 48.6345C72.6531 48.4312 72.0237 48.7309 71.8203 49.3036C69.4053 56.1123 65.0127 61.9503 59.1177 66.1862C53.0967 70.5127 45.9819 72.7994 38.5422 72.7994C29.1135 72.7994 20.249 69.1277 13.5818 62.4605C6.91431 55.7934 3.24268 46.929 3.24268 37.5C3.24268 28.071 6.91455 19.2066 13.5818 12.5395C20.2488 5.87231 29.1133 2.2005 38.5422 2.2005C44.8518 2.2005 51.043 3.88483 56.4465 7.07147C61.2742 9.91833 65.3687 13.892 68.3667 18.6158L66.7292 17.9517C66.1663 17.7233 65.5247 17.9947 65.2961 18.5577C65.0676 19.1208 65.3391 19.7625 65.9021 19.9908L70.8252 21.9875C70.9583 22.0414 71.0986 22.0682 71.2385 22.0682C71.4341 22.0682 71.6287 22.0161 71.8013 21.9134C72.0972 21.7372 72.2935 21.4327 72.3318 21.0906L72.9329 15.7286C73.0007 15.1248 72.5659 14.5804 71.9619 14.5126C71.3604 14.4441 70.814 14.8795 70.7461 15.4835L70.4814 17.8441C67.2764 12.6476 62.8301 8.28143 57.5642 5.17621C51.8223 1.78973 45.2444 0 38.5422 0C28.5256 0 19.1086 3.90063 12.0259 10.9835C4.94287 18.0663 1.04224 27.4835 1.04224 37.5C1.04224 47.5165 4.94287 56.9337 12.0259 64.0165C19.1086 71.0992 28.5256 75 38.5422 75C46.4456 75 54.0044 72.5702 60.4019 67.9733C66.6628 63.4744 71.3284 57.2729 73.8943 50.0393C74.0972 49.4666 73.7976 48.8377 73.2249 48.6345Z" fill="#00BDA0" fill-opacity="1.000000" fill-rule="nonzero"/>
		<path id="Vector" d="M38.5422 69.078C30.1077 69.078 22.1775 65.7934 16.2134 59.8291C10.2493 53.8648 6.96436 45.935 6.96436 37.5001C6.96436 30.3833 9.27563 23.6644 13.6484 18.0698C13.6521 18.0649 13.656 18.0601 13.6599 18.0552L14.2942 17.2712C14.6763 16.799 15.3691 16.7256 15.8418 17.108C16.314 17.4901 16.3872 18.183 16.0049 18.6554L15.3762 19.4323C11.313 24.6348 9.16479 30.8824 9.16479 37.5001C9.16479 53.6987 22.3435 66.8774 38.5422 66.8774C44.481 66.8774 50.2019 65.1144 55.0864 61.7795C59.8547 58.5237 63.532 53.9914 65.7209 48.672C65.863 48.3111 66.0994 47.7052 66.1409 47.5902C66.3464 47.0184 66.9771 46.7214 67.5483 46.927C68.1201 47.1325 68.4172 47.7628 68.2114 48.3346C68.1467 48.5149 67.8289 49.3246 67.7659 49.485C67.7637 49.4904 67.7615 49.4957 67.7593 49.501C65.407 55.2224 61.4536 60.0965 56.3271 63.5968C51.0754 67.1826 44.9255 69.078 38.5422 69.078Z" fill="#00BDA0" fill-opacity="1.000000" fill-rule="nonzero"/>
		<path id="Vector" d="M68.4927 44.2822C68.4248 44.2822 68.3562 44.2759 68.2876 44.263C67.6904 44.1503 67.2976 43.5751 67.4102 42.9779C67.7485 41.1842 67.9199 39.3412 67.9199 37.4999C67.9199 21.3013 54.7415 8.12262 38.5425 8.12262C31.5422 8.12262 24.7622 10.6258 19.4514 15.1709C18.9895 15.566 18.2949 15.5118 17.9001 15.0504C17.5049 14.5887 17.5591 13.8942 18.0205 13.499C23.7297 8.61292 31.0181 5.92212 38.5425 5.92212C46.9773 5.92212 54.9072 9.20679 60.8716 15.1711C66.8357 21.1354 70.1206 29.0652 70.1206 37.5001C70.1206 39.4777 69.936 41.4579 69.5728 43.3857C69.4729 43.9139 69.011 44.2822 68.4927 44.2822Z" fill="#00BDA0" fill-opacity="1.000000" fill-rule="nonzero"/>
	</g>
</svg>
