<svg width="75.000000" height="75.000000" viewBox="0 0 75 75" fill="none" xmlns="http://www.w3.org/2000/svg" xmlns:xlink="http://www.w3.org/1999/xlink">
	<desc>
			Created with Pixso.
	</desc>
	<defs>
		<clipPath id="clip213_0">
			<rect id="calendar (42) 1" width="75.000000" height="75.000000" fill="white" fill-opacity="0"/>
		</clipPath>
	</defs>
	<rect id="calendar (42) 1" width="75.000000" height="75.000000" fill="#FFFFFF" fill-opacity="0"/>
	<g clip-path="url(#clip213_0)">
		<path id="Vector" d="M68.75 5.00208L66.25 5.00208L66.25 1.25208C66.25 0.561768 65.6902 0.0020752 65 0.0020752C64.3096 0.0020752 63.75 0.561768 63.75 1.25208L63.75 5.00208L53.75 5.00208L53.75 1.25208C53.75 0.561768 53.1904 0.0020752 52.5 0.0020752C51.8096 0.0020752 51.25 0.561768 51.25 1.25208L51.25 5.00208L41.25 5.00208L41.25 1.25208C41.25 0.561768 40.6904 0.0020752 40 0.0020752C39.3098 0.0020752 38.75 0.561768 38.75 1.25208L38.75 5.00208L28.75 5.00208L28.75 1.25208C28.75 0.561768 28.1904 0.0020752 27.5 0.0020752C26.8098 0.0020752 26.25 0.561768 26.25 1.25208L26.25 5.00208L16.25 5.00208L16.25 1.25208C16.25 0.561768 15.6904 0.0020752 15 0.0020752C14.3098 0.0020752 13.75 0.561768 13.75 1.25208L13.75 5.00208L11.25 5.00208C7.80005 5.0061 5.00415 7.80206 5 11.2521L5 41.8193C-1.78687 49.4885 -1.64893 61.0554 5.31885 68.5605C5.66577 68.9485 6.03394 69.317 6.42139 69.6643L6.43262 69.6755L6.44019 69.6755C13.9434 76.6469 25.5115 76.788 33.1826 70.0018L68.75 70.0018C72.2 69.9977 74.9958 67.2018 75 63.7518L75 11.2519C74.9956 7.80188 72.2 5.0061 68.75 5.00208ZM31.9468 67.8376C25.2183 74.0627 14.8303 74.0558 8.10986 67.8218C7.77759 67.5233 7.46167 67.2071 7.16357 66.8743C0.586182 59.7648 1.01733 48.669 8.12695 42.0914C15.2366 35.5137 26.3325 35.9449 32.9102 43.0546C39.4878 50.1642 39.0564 61.2599 31.9468 67.8376ZM72.5 63.752C72.5 65.8231 70.821 67.502 68.75 67.502L35.6001 67.502C35.7524 67.3132 35.8862 67.1119 36.03 66.9182C36.1738 66.7244 36.2976 66.5657 36.4238 66.3832C36.7026 65.9819 36.9626 65.5682 37.21 65.147C37.2825 65.022 37.3638 64.9082 37.4326 64.7844C37.7407 64.2361 38.022 63.674 38.2764 63.0982C38.3413 62.952 38.3938 62.8007 38.4551 62.6532C38.6362 62.2182 38.8064 61.7782 38.9551 61.332C39.0264 61.1219 39.0876 60.9094 39.1501 60.697C39.2751 60.2957 39.3787 59.8907 39.4724 59.4819C39.5237 59.2582 39.5737 59.0357 39.6187 58.8094C39.7012 58.382 39.7676 57.9495 39.8225 57.5145C39.8474 57.3145 39.8801 57.1157 39.8999 56.9144C39.9612 56.2807 40 55.6432 40 55.002C39.9868 43.9617 31.0403 35.0151 20 35.002C19.3589 35.002 18.7214 35.0408 18.0876 35.102C17.8862 35.122 17.6875 35.1545 17.4863 35.1795C17.0525 35.2358 16.6213 35.3045 16.1926 35.3832C15.9663 35.4282 15.7427 35.4783 15.5188 35.5295C15.1113 35.6237 14.7083 35.7308 14.3101 35.8508C14.095 35.9145 13.8801 35.9758 13.6675 36.047C13.2288 36.1945 12.7925 36.362 12.3701 36.5383C12.2126 36.6033 12.054 36.6633 11.8989 36.727C11.3289 36.977 10.7739 37.2582 10.2263 37.5645C10.0876 37.642 9.9563 37.732 9.81885 37.8145C9.41504 38.0545 9.01758 38.3032 8.63013 38.5645C8.43896 38.697 8.25513 38.8395 8.06763 38.9783C7.88013 39.117 7.68384 39.252 7.5 39.402L7.5 20.002L72.5 20.002L72.5 63.752ZM72.5 17.502L7.5 17.502L7.5 11.2521C7.5 9.18097 9.17896 7.50208 11.25 7.50208L13.75 7.50208L13.75 11.2521C13.75 11.9424 14.3098 12.5021 15 12.5021C15.6904 12.5021 16.25 11.9424 16.25 11.2521L16.25 7.50208L26.25 7.50208L26.25 11.2521C26.25 11.9424 26.8098 12.5021 27.5 12.5021C28.1904 12.5021 28.75 11.9424 28.75 11.2521L28.75 7.50208L38.75 7.50208L38.75 11.2521C38.75 11.9424 39.3098 12.5021 40 12.5021C40.6904 12.5021 41.25 11.9424 41.25 11.2521L41.25 7.50208L51.25 7.50208L51.25 11.2521C51.25 11.9424 51.8096 12.5021 52.5 12.5021C53.1904 12.5021 53.75 11.9424 53.75 11.2521L53.75 7.50208L63.75 7.50208L63.75 11.2521C63.75 11.9424 64.3096 12.5021 65 12.5021C65.6902 12.5021 66.25 11.9424 66.25 11.2521L66.25 7.50208L68.75 7.50208C70.821 7.50208 72.5 9.18097 72.5 11.2521L72.5 17.502Z" fill="#00BDA0" fill-opacity="1.000000" fill-rule="nonzero"/>
		<path id="Vector" d="M20 41.2513C19.3096 41.2513 18.75 41.811 18.75 42.5013L18.75 53.7513L12.5 53.7513C11.8096 53.7513 11.25 54.311 11.25 55.0013C11.25 55.6917 11.8096 56.2513 12.5 56.2513L20 56.2513C20.6902 56.2513 21.25 55.6917 21.25 55.0013L21.25 42.5013C21.25 41.8109 20.6902 41.2513 20 41.2513Z" fill="#00BDA0" fill-opacity="1.000000" fill-rule="nonzero"/>
	</g>
</svg>
