<svg width="75.000000" height="75.000000" viewBox="0 0 75 75" fill="none" xmlns="http://www.w3.org/2000/svg" xmlns:xlink="http://www.w3.org/1999/xlink">
	<desc>
			Created with Pixso.
	</desc>
	<defs>
		<clipPath id="clip215_0">
			<rect id="stars (3) 1" width="75.000000" height="75.000000" fill="white" fill-opacity="0"/>
		</clipPath>
	</defs>
	<rect id="stars (3) 1" width="75.000000" height="75.000000" fill="#FFFFFF" fill-opacity="0"/>
	<g clip-path="url(#clip215_0)">
		<path id="Vector" d="M58.3845 32.5687C58.084 31.6414 57.2974 30.9782 56.3325 30.8382L44.8945 29.176L39.7793 18.8124C39.3486 17.9376 38.4751 17.3943 37.5 17.3943C36.5247 17.3943 35.6511 17.9376 35.2207 18.8115L30.105 29.176L18.667 30.8382C17.7026 30.9782 16.9163 31.6409 16.6147 32.5685C16.3142 33.4945 16.5603 34.4927 17.2581 35.1738L25.5352 43.2415L23.5813 54.6331C23.4163 55.5936 23.8032 56.5463 24.592 57.1195C25.0376 57.4435 25.5591 57.6082 26.084 57.608C26.488 57.608 26.894 57.5105 27.269 57.3134L37.5 51.9347L47.73 57.3135C48.093 57.5042 48.502 57.6051 48.9124 57.6051C49.4531 57.6051 49.9697 57.4373 50.407 57.1195C51.1943 56.5469 51.582 55.5946 51.4177 54.6337L50.645 50.1268C50.5342 49.4821 49.9214 49.0491 49.2776 49.1597C48.6328 49.2703 48.2 49.8826 48.3105 50.5272L49.0835 55.0333C49.0945 55.0983 49.0671 55.1654 49.0144 55.2038C48.9358 55.2611 48.8789 55.2418 48.8315 55.2169L38.0503 49.5488C37.7053 49.3676 37.2935 49.3674 36.948 49.5488L26.1658 55.2172C26.1082 55.2474 26.0366 55.2422 25.9836 55.2038C25.9299 55.1647 25.9036 55.1 25.9148 55.0341L27.9741 43.0283C28.04 42.6439 27.9128 42.2521 27.6335 41.9801L18.9111 33.4784C18.864 33.4323 18.8464 33.3622 18.8665 33.3004C18.887 33.2379 18.9419 33.1913 19.0068 33.1819L31.0613 31.4303C31.447 31.3741 31.7805 31.132 31.9529 30.7823L37.3442 19.8589C37.4028 19.7401 37.5955 19.7391 37.6548 19.8595L43.0459 30.7823C43.2183 31.1319 43.552 31.3741 43.9375 31.4303L55.9922 33.1819C56.0569 33.1915 56.1116 33.2374 56.1321 33.3009C56.1523 33.3629 56.135 33.4324 56.0881 33.478L47.3655 41.9801C47.0864 42.2521 46.959 42.6442 47.0251 43.0283L47.6758 46.8215C47.7861 47.4661 48.3987 47.899 49.043 47.7885C49.6875 47.6779 50.1206 47.0656 50.0098 46.421L49.4644 43.2415L57.7415 35.1734C58.4397 34.4926 58.686 33.4941 58.3845 32.5687Z" fill="#00BDA0" fill-opacity="1.000000" fill-rule="nonzero"/>
		<path id="Vector" d="M6.80884 36.3159L1.18408 36.3159C0.530029 36.3159 0 36.8461 0 37.5001C0 38.1542 0.530029 38.6843 1.18408 38.6843L6.80884 38.6843C7.46313 38.6843 7.99316 38.154 7.99316 37.5001C7.99316 36.8461 7.46289 36.3159 6.80884 36.3159Z" fill="#00BDA0" fill-opacity="1.000000" fill-rule="nonzero"/>
		<path id="Vector" d="M73.8157 36.3159L68.1909 36.3159C67.5369 36.3159 67.0068 36.8462 67.0068 37.5001C67.0068 38.1542 67.5369 38.6843 68.1909 38.6843L73.8157 38.6843C74.47 38.6843 75 38.154 75 37.5001C75 36.8461 74.47 36.3159 73.8157 36.3159Z" fill="#00BDA0" fill-opacity="1.000000" fill-rule="nonzero"/>
		<path id="Vector" d="M14.9609 58.3647L10.9836 62.3417C10.521 62.804 10.521 63.5539 10.9836 64.0164C11.2148 64.2476 11.5178 64.3632 11.821 64.3632C12.124 64.3632 12.4272 64.2476 12.6582 64.0165L16.6353 60.0392C17.0979 59.577 17.0979 58.8271 16.6355 58.3647C16.1731 57.9022 15.4231 57.9022 14.9609 58.3647Z" fill="#00BDA0" fill-opacity="1.000000" fill-rule="nonzero"/>
		<path id="Vector" d="M62.3413 10.9836L58.364 14.9606C57.9014 15.4231 57.9014 16.173 58.364 16.6354C58.5952 16.8667 58.8982 16.9823 59.2014 16.9823C59.5044 16.9823 59.8076 16.8667 60.0386 16.6353L64.0159 12.6582C64.4785 12.1959 64.4785 11.446 64.0161 10.9836C63.5535 10.521 62.8037 10.5209 62.3413 10.9836Z" fill="#00BDA0" fill-opacity="1.000000" fill-rule="nonzero"/>
		<path id="Vector" d="M37.5 67.0068C36.8459 67.0068 36.3159 67.5371 36.3159 68.191L36.3159 73.8156C36.3159 74.4696 36.8459 74.9998 37.5 74.9998C38.1543 74.9998 38.6843 74.4695 38.6843 73.8156L38.6843 68.191C38.6843 67.537 38.1543 67.0068 37.5 67.0068Z" fill="#00BDA0" fill-opacity="1.000000" fill-rule="nonzero"/>
		<path id="Vector" d="M37.5 7.99316C38.1543 7.99316 38.6843 7.46289 38.6843 6.80902L38.6843 1.18433C38.6843 0.530273 38.1541 0.00012207 37.5 0.00012207C36.8459 0.00012207 36.3159 0.530396 36.3159 1.18433L36.3159 6.80902C36.3159 7.46307 36.8459 7.99316 37.5 7.99316Z" fill="#00BDA0" fill-opacity="1.000000" fill-rule="nonzero"/>
		<path id="Vector" d="M60.0386 58.3646C59.5764 57.9021 58.8264 57.9021 58.364 58.3646C57.9014 58.8268 57.9014 59.5767 58.364 60.0391L62.3413 64.0164C62.5725 64.2477 62.8757 64.3632 63.1787 64.3632C63.4817 64.3632 63.7849 64.2477 64.0161 64.0162C64.4785 63.5539 64.4785 62.8041 64.0159 62.3416L60.0386 58.3646Z" fill="#00BDA0" fill-opacity="1.000000" fill-rule="nonzero"/>
		<path id="Vector" d="M14.9607 16.6356C15.1921 16.8669 15.4951 16.9825 15.7981 16.9825C16.1011 16.9825 16.4043 16.8669 16.6355 16.6359C17.0979 16.1735 17.0979 15.4236 16.6355 14.9611L12.6582 10.9838C12.196 10.5214 11.4463 10.5214 10.9836 10.9838C10.521 11.4461 10.521 12.196 10.9836 12.6584L14.9607 16.6356Z" fill="#00BDA0" fill-opacity="1.000000" fill-rule="nonzero"/>
	</g>
</svg>
