<svg width="75.000000" height="75.000000" viewBox="0 0 75 75" fill="none" xmlns="http://www.w3.org/2000/svg" xmlns:xlink="http://www.w3.org/1999/xlink">
	<desc>
			Created with Pixso.
	</desc>
	<defs>
		<clipPath id="clip215_28">
			<rect id="locked (3) 1" width="75.000000" height="75.000000" fill="white" fill-opacity="0"/>
		</clipPath>
	</defs>
	<rect id="locked (3) 1" width="75.000000" height="75.000000" fill="#FFFFFF" fill-opacity="0"/>
	<g clip-path="url(#clip215_28)">
		<path id="Vector" d="M51.7241 27.5612L51.7241 13.2155C51.7241 5.92889 45.3428 0 37.5 0C29.6572 0 23.2759 5.92889 23.2759 13.2155L23.2759 27.5612C16.2725 32.1931 11.6379 40.1302 11.6379 49.1379C11.6379 63.3983 23.2397 75 37.5 75C51.7603 75 63.3621 63.3983 63.3621 49.1379C63.3621 40.1302 58.7275 32.1931 51.7241 27.5612ZM25.8621 26.0651L25.8621 13.2155C25.8621 7.35516 31.0823 2.58618 37.5 2.58618C43.9177 2.58618 49.1379 7.35516 49.1379 13.2155L49.1379 26.0664C48.8948 25.9435 48.6465 25.8349 48.4009 25.7198C47.8926 25.4819 47.3767 25.2595 46.8518 25.0539C46.5142 24.922 46.1755 24.7979 45.834 24.6802C45.4978 24.5651 45.1643 24.45 44.8228 24.3491C44.2578 24.181 43.6863 24.0375 43.1108 23.9082C42.8613 23.8526 42.6104 23.7996 42.3582 23.7504C41.6819 23.6198 41.0017 23.5138 40.3164 23.4375C40.1611 23.4207 40.0061 23.4103 39.8508 23.3961C39.0686 23.3224 38.2861 23.2759 37.5 23.2759C36.7139 23.2759 35.9314 23.3224 35.1516 23.3948C34.9966 23.4091 34.8401 23.4194 34.6863 23.4362C34.001 23.5125 33.3208 23.6185 32.6443 23.7491C32.3923 23.797 32.1414 23.8513 31.8918 23.9069C31.3164 24.0362 30.7449 24.1797 30.1797 24.3478C29.8384 24.4487 29.5034 24.5651 29.1685 24.6789C28.8271 24.7966 28.4871 24.9207 28.1509 25.0526C27.6245 25.2569 27.1099 25.4806 26.6018 25.7185C26.3535 25.8336 26.1052 25.9423 25.8621 26.0651ZM37.5 72.4138C24.666 72.4138 14.2241 61.972 14.2241 49.1379C14.2241 40.6849 18.7693 33.291 25.5298 29.2138C26.7195 28.4974 27.9634 27.8936 29.2449 27.4022C29.4724 27.3155 29.7014 27.2302 29.9314 27.15C30.2844 27.0272 30.6389 26.9095 30.9971 26.8035C31.4365 26.6754 31.8828 26.5616 32.3328 26.4595C32.6611 26.3845 32.991 26.3185 33.322 26.2578C33.7991 26.1711 34.2803 26.0935 34.7676 26.0366C34.9875 26.0095 35.2087 25.9862 35.4297 25.9668C36.1138 25.906 36.8018 25.8621 37.5 25.8621C38.1982 25.8621 38.8862 25.906 39.5703 25.9668C39.7915 25.9875 40.0112 26.0108 40.2324 26.0366C40.7197 26.0935 41.2009 26.1711 41.678 26.2578C42.009 26.3185 42.3389 26.3845 42.6672 26.4595C43.1172 26.5616 43.5635 26.6754 44.0029 26.8035C44.3613 26.9082 44.7156 27.0272 45.0686 27.15C45.3 27.2302 45.5276 27.3155 45.7551 27.4022C47.0366 27.8936 48.2805 28.4974 49.4702 29.2138C56.2307 33.291 60.7759 40.6849 60.7759 49.1379C60.7759 61.972 50.334 72.4138 37.5 72.4138Z" fill="#00BDA0" fill-opacity="1.000000" fill-rule="nonzero"/>
		<path id="Vector" d="M53.0173 47.8449L49.0618 47.8449C48.812 45.6039 47.9238 43.5569 46.584 41.8824L49.3862 39.0802C49.8918 38.5746 49.8918 37.7574 49.3862 37.2518C48.8806 36.7462 48.0635 36.7462 47.5579 37.2518L44.7556 40.054C43.0811 38.7143 41.0342 37.8259 38.7932 37.5764L38.7932 33.6207C38.7932 32.9056 38.2151 32.3276 37.5 32.3276C36.7849 32.3276 36.207 32.9056 36.207 33.6207L36.207 37.5764C33.9661 37.8259 31.9189 38.7143 30.2444 40.054L27.4424 37.2518C26.9368 36.7462 26.1194 36.7462 25.6138 37.2518C25.1082 37.7574 25.1082 38.5746 25.6138 39.0802L28.416 41.8824C27.0764 43.5569 26.188 45.6039 25.9385 47.8449L21.9829 47.8449C21.2678 47.8449 20.6897 48.4229 20.6897 49.138C20.6897 49.8531 21.2678 50.4311 21.9829 50.4311L25.9385 50.4311C26.188 52.6721 27.0764 54.719 28.416 56.3936L25.6138 59.1957C25.1082 59.7014 25.1082 60.5186 25.6138 61.0242C25.866 61.2764 26.197 61.4031 26.5281 61.4031C26.8591 61.4031 27.1902 61.2764 27.4424 61.0242L30.2444 58.222C31.9189 59.5617 33.9661 60.4501 36.207 60.6996L36.207 64.6552C36.207 65.3703 36.7849 65.9483 37.5 65.9483C38.2151 65.9483 38.7932 65.3703 38.7932 64.6552L38.7932 60.6996C41.0342 60.4501 43.0811 59.5617 44.7556 58.222L47.5579 61.0242C47.8101 61.2764 48.1409 61.4031 48.4719 61.4031C48.803 61.4031 49.134 61.2764 49.3862 61.0242C49.8918 60.5186 49.8918 59.7014 49.3862 59.1957L46.584 56.3936C47.9238 54.719 48.812 52.6721 49.0618 50.4311L53.0173 50.4311C53.7324 50.4311 54.3103 49.8531 54.3103 49.138C54.3103 48.4229 53.7324 47.8449 53.0173 47.8449ZM37.5 58.1897C32.51 58.1897 28.4482 54.1281 28.4482 49.138C28.4482 44.1479 32.51 40.0862 37.5 40.0862C42.4902 40.0862 46.5518 44.1479 46.5518 49.138C46.5518 54.1281 42.4902 58.1897 37.5 58.1897Z" fill="#00BDA0" fill-opacity="1.000000" fill-rule="nonzero"/>
	</g>
</svg>
