<svg width="75.000000" height="75.000000" viewBox="0 0 75 75" fill="none" xmlns="http://www.w3.org/2000/svg" xmlns:xlink="http://www.w3.org/1999/xlink">
	<desc>
			Created with Pixso.
	</desc>
	<defs>
		<clipPath id="clip204_48">
			<rect id="crown (1) 1" width="75.000000" height="75.000000" fill="white" fill-opacity="0"/>
		</clipPath>
	</defs>
	<rect id="crown (1) 1" width="75.000000" height="75.000000" fill="#FFFFFF" fill-opacity="0"/>
	<g clip-path="url(#clip204_48)">
		<path id="Vector" d="M23.0989 40.796C22.8796 40.796 22.6663 40.7248 22.4907 40.5933L9.39624 30.7693C9.28955 30.6894 9.19995 30.5894 9.13208 30.4749C9.06421 30.3603 9.01978 30.2335 9.00098 30.1018C8.96289 29.8357 9.03223 29.5654 9.19336 29.3503C9.35474 29.1353 9.59473 28.9932 9.86084 28.9551C10.127 28.9171 10.3972 28.9863 10.6123 29.1476L22.8496 38.3281L34.6621 20.6118C34.8132 20.3933 35.0442 20.2429 35.3052 20.1931C35.5662 20.1432 35.8364 20.1978 36.0576 20.3452C36.2786 20.4926 36.4331 20.7209 36.4875 20.981C36.542 21.2411 36.4919 21.5121 36.3484 21.7358L23.9431 40.3439C23.8667 40.4586 23.7676 40.5565 23.6521 40.6316C23.5366 40.7067 23.407 40.7574 23.2712 40.7808C23.2141 40.7905 23.1565 40.7956 23.0989 40.796Z" fill="#00BDA0" fill-opacity="1.000000" fill-rule="nonzero"/>
		<path id="Vector" d="M61.1594 56.2257L13.8403 56.2257C13.616 56.2257 13.3977 56.1512 13.2202 56.0138C13.0427 55.8764 12.9158 55.6839 12.8594 55.4666L6.70923 31.723C6.67285 31.5931 6.6626 31.4572 6.6792 31.3232C6.6958 31.1893 6.73901 31.0601 6.80615 30.9431C6.87354 30.826 6.96338 30.7237 7.0708 30.6419C7.17822 30.5601 7.30078 30.5006 7.4314 30.4669C7.56201 30.4332 7.69824 30.4258 7.83179 30.4454C7.96533 30.465 8.09351 30.511 8.20898 30.5807C8.32471 30.6506 8.42505 30.7427 8.50439 30.8519C8.58374 30.961 8.64062 31.0848 8.67163 31.2162L14.626 54.1977L60.3738 54.1977L66.3284 31.2162C66.3591 31.0848 66.416 30.961 66.4954 30.8519C66.5747 30.7427 66.6753 30.6506 66.7908 30.5807C66.9062 30.511 67.0344 30.465 67.168 30.4454C67.3015 30.4258 67.4377 30.4332 67.5684 30.4669C67.699 30.5006 67.8215 30.5601 67.929 30.6419C68.0364 30.7237 68.1262 30.826 68.1936 30.9431C68.2607 31.0601 68.304 31.1893 68.3206 31.3232C68.3374 31.4572 68.3271 31.5931 68.2905 31.723L62.1404 55.4666C62.084 55.6839 61.9573 55.8764 61.7795 56.0138C61.6021 56.1512 61.3838 56.2257 61.1594 56.2257Z" fill="#00BDA0" fill-opacity="1.000000" fill-rule="nonzero"/>
		<path id="Vector" d="M51.9011 40.796C51.8438 40.7959 51.7864 40.7912 51.7297 40.7818C51.594 40.7585 51.4644 40.7077 51.3489 40.6326C51.2332 40.5575 51.1343 40.4597 51.0579 40.345L38.6523 21.7369C38.5747 21.6263 38.5198 21.5013 38.4912 21.3692C38.4624 21.2371 38.4604 21.1006 38.4854 20.9678C38.51 20.835 38.5613 20.7084 38.6357 20.5956C38.7102 20.4828 38.8064 20.386 38.9189 20.311C39.0312 20.236 39.1575 20.1842 39.2903 20.1587C39.4231 20.1332 39.5596 20.1345 39.6917 20.1625C39.824 20.1906 39.9492 20.2448 40.0603 20.3219C40.1711 20.3991 40.2656 20.4977 40.3379 20.6119L52.1484 38.3281L64.3855 29.1476C64.4919 29.0678 64.613 29.0097 64.7422 28.9767C64.8711 28.9437 65.0051 28.9363 65.137 28.9551C65.2688 28.974 65.3955 29.0186 65.51 29.0864C65.6245 29.1542 65.7246 29.2439 65.8044 29.3504C65.8843 29.4568 65.9424 29.578 65.9753 29.707C66.0085 29.8359 66.0159 29.97 65.9968 30.1018C65.978 30.2336 65.9336 30.3604 65.8657 30.4749C65.7979 30.5894 65.7083 30.6895 65.6018 30.7693L52.5103 40.5933C52.3345 40.725 52.1206 40.7962 51.9011 40.796Z" fill="#00BDA0" fill-opacity="1.000000" fill-rule="nonzero"/>
		<path id="Vector" d="M61.7888 62.397L13.2109 62.397C12.8875 62.397 12.5684 62.3201 12.2803 62.1727C11.9922 62.0253 11.7434 61.8116 11.5542 61.5491C11.3647 61.2866 11.2407 60.9828 11.1919 60.663C11.1431 60.3431 11.1709 60.0161 11.2732 59.7091L12.8796 54.8909C12.9468 54.6891 13.0757 54.5137 13.248 54.3892C13.4207 54.2648 13.6277 54.1978 13.8403 54.1976L61.1594 54.1976C61.3721 54.1978 61.5791 54.2648 61.7517 54.3892C61.9241 54.5137 62.053 54.6891 62.1201 54.8909L63.7256 59.7091C63.8281 60.0161 63.8562 60.343 63.8074 60.6628C63.7588 60.9828 63.6348 61.2866 63.4456 61.5491C63.2563 61.8116 63.0073 62.0254 62.7195 62.1729C62.4314 62.3203 62.1123 62.3971 61.7888 62.397ZM14.571 56.2247L13.1968 60.3497L61.7888 60.3699L60.4255 56.2247L14.571 56.2247Z" fill="#00BDA0" fill-opacity="1.000000" fill-rule="nonzero"/>
		<path id="Vector" d="M68.1018 32.5662C67.1384 32.5662 66.1968 32.2805 65.3958 31.7452C64.5945 31.21 63.9702 30.4492 63.6016 29.5591C63.2329 28.6689 63.1367 27.6895 63.3247 26.7446C63.5127 25.7997 63.9766 24.9318 64.658 24.2507C65.3394 23.5695 66.2073 23.1057 67.1523 22.9178C68.0972 22.73 69.0767 22.8266 69.9666 23.1954C70.8567 23.5642 71.6174 24.1887 72.1523 24.9899C72.6875 25.791 72.9731 26.7328 72.9729 27.6963C72.9709 28.9875 72.457 30.2252 71.5439 31.1381C70.6309 32.051 69.3931 32.5646 68.1018 32.5662ZM68.1018 24.8514C67.5396 24.8514 66.9897 25.0181 66.522 25.3306C66.0544 25.643 65.6899 26.0872 65.4746 26.6068C65.2593 27.1263 65.2029 27.6981 65.3125 28.2498C65.4221 28.8014 65.6929 29.3081 66.0906 29.7059C66.4883 30.1036 66.9949 30.3746 67.5464 30.4844C68.0981 30.5943 68.6699 30.5381 69.1895 30.323C69.7092 30.1079 70.1533 29.7436 70.4661 29.276C70.7786 28.8085 70.9456 28.2587 70.9458 27.6963C70.9451 26.9423 70.645 26.2194 70.1121 25.6862C69.5789 25.1531 68.856 24.8532 68.1018 24.8524L68.1018 24.8514Z" fill="#00BDA0" fill-opacity="1.000000" fill-rule="nonzero"/>
		<path id="Vector" d="M6.89795 32.5662C5.93457 32.566 4.99292 32.2802 4.19214 31.7448C3.39136 31.2095 2.76709 30.4487 2.39868 29.5586C2.03003 28.6686 1.93384 27.6892 2.12183 26.7444C2.30981 25.7996 2.77393 24.9318 3.45508 24.2507C4.13647 23.5695 5.00439 23.1057 5.94922 22.9178C6.89404 22.73 7.87329 22.8265 8.76318 23.1952C9.65332 23.5639 10.4141 24.1882 10.9492 24.9893C11.4844 25.7902 11.77 26.7319 11.77 27.6953C11.7686 28.9869 11.2549 30.2252 10.3416 31.1384C9.42798 32.0516 8.1897 32.5652 6.89795 32.5662ZM6.89795 24.8514C6.33569 24.8516 5.78589 25.0186 5.31836 25.3312C4.85083 25.6437 4.48633 26.088 4.27124 26.6077C4.05615 27.1273 4 27.6992 4.10986 28.2507C4.21973 28.8023 4.49072 29.309 4.88843 29.7066C5.28613 30.1042 5.79297 30.375 6.34448 30.4846C6.89624 30.5943 7.46802 30.5379 7.98755 30.3226C8.50708 30.1074 8.95117 29.7429 9.26367 29.2752C9.57617 28.8075 9.74292 28.2577 9.74292 27.6953C9.74194 26.9413 9.44165 26.2185 8.90845 25.6855C8.375 25.1525 7.6521 24.8529 6.89795 24.8524L6.89795 24.8514Z" fill="#00BDA0" fill-opacity="1.000000" fill-rule="nonzero"/>
		<path id="Vector" d="M37.5 22.7088C36.5005 22.709 35.5234 22.4128 34.6921 21.8577C33.8611 21.3025 33.2131 20.5134 32.8306 19.59C32.448 18.6666 32.3477 17.6505 32.5425 16.6702C32.7373 15.6899 33.2185 14.7894 33.9253 14.0825C34.6321 13.3757 35.5325 12.8943 36.5127 12.6992C37.4929 12.5042 38.509 12.6042 39.4326 12.9866C40.356 13.3691 41.1453 14.0168 41.7007 14.8478C42.2559 15.6788 42.5522 16.6559 42.5522 17.6555C42.551 18.9951 42.0183 20.2795 41.071 21.2269C40.124 22.1743 38.8396 22.7072 37.5 22.7088ZM37.5 14.6291C36.9014 14.6289 36.3162 14.8062 35.8184 15.1386C35.3206 15.471 34.9324 15.9436 34.7031 16.4966C34.4741 17.0496 34.4141 17.6581 34.5305 18.2452C34.6472 18.8323 34.9353 19.3717 35.3586 19.795C35.7817 20.2184 36.321 20.5067 36.9082 20.6235C37.4951 20.7404 38.1038 20.6805 38.6567 20.4515C39.21 20.2225 39.6826 19.8346 40.0151 19.3369C40.3477 18.8392 40.5254 18.254 40.5254 17.6555C40.5242 16.8534 40.2051 16.0845 39.6379 15.5174C39.0708 14.9503 38.302 14.6312 37.5 14.6301L37.5 14.6291Z" fill="#00BDA0" fill-opacity="1.000000" fill-rule="nonzero"/>
	</g>
</svg>
