<svg width="92.000000" height="92.000000" viewBox="0 0 92 92" fill="none" xmlns="http://www.w3.org/2000/svg" xmlns:xlink="http://www.w3.org/1999/xlink">
	<desc>
			Created with Pixso.
	</desc>
	<defs>
		<clipPath id="clip244_75">
			<rect id="check (64) 1" width="92.000000" height="92.000000" fill="white" fill-opacity="0"/>
		</clipPath>
	</defs>
	<rect id="check (64) 1" width="92.000000" height="92.000000" fill="#FFFFFF" fill-opacity="0"/>
	<g clip-path="url(#clip244_75)">
		<path id="Vector" d="M46 0C20.595 0 0 20.595 0 46C0 71.405 20.595 92 46 92C71.3931 91.9713 91.9712 71.3931 92 46C92 20.595 71.405 0 46 0ZM46 88.9333C22.2886 88.9333 3.06665 69.7115 3.06665 46C3.06665 22.2885 22.2886 3.06665 46 3.06665C69.7002 3.09369 88.9062 22.2999 88.9333 46C88.9333 69.7115 69.7114 88.9333 46 88.9333Z" fill="#00BDA0" fill-opacity="1.000000" fill-rule="nonzero"/>
		<path id="Vector" d="M66.5542 30.7058C65.9451 30.1174 64.9744 30.1342 64.3862 30.7433L39.4495 55.6815L27.5232 43.7552C26.9292 43.1814 25.9871 43.1814 25.3928 43.7552C24.7837 44.3434 24.7668 45.3143 25.3552 45.9233L38.3655 58.9337C38.6531 59.2212 39.043 59.383 39.4495 59.383C39.8562 59.383 40.2461 59.2212 40.5337 58.9337L66.5542 32.9115C66.5671 32.8992 66.5796 32.8866 66.5918 32.8739C67.1802 32.2648 67.1633 31.294 66.5542 30.7058Z" fill="#00BDA0" fill-opacity="1.000000" fill-rule="nonzero"/>
	</g>
</svg>
