<svg width="22.000000" height="22.000000" viewBox="0 0 22 22" fill="none" xmlns="http://www.w3.org/2000/svg" xmlns:xlink="http://www.w3.org/1999/xlink">
	<desc>
			Created with Pixso.
	</desc>
	<defs>
		<clipPath id="clip217_39">
			<rect id="timer (8) 1" width="22.000000" height="22.000000" fill="white" fill-opacity="0"/>
		</clipPath>
	</defs>
	<rect id="timer (8) 1" width="22.000000" height="22.000000" fill="#FFFFFF" fill-opacity="0"/>
	<g clip-path="url(#clip217_39)">
		<path id="Vector" d="M11.6846 3.2749L11.6846 1.35425L13.0239 1.35425C13.9189 1.35425 13.9197 0 13.0239 0L8.99072 0C8.0957 0 8.09497 1.35425 8.99072 1.35425L10.3301 1.35425L10.3301 3.2749C5.47534 3.62305 1.63281 7.68359 1.63281 12.6255C1.63281 17.7944 5.83789 22 11.0073 22C16.1768 22 20.3818 17.7944 20.3818 12.6255C20.3818 7.68359 16.5393 3.62305 11.6846 3.2749ZM11.0073 20.6458C6.58521 20.6458 2.98706 17.0476 2.98706 12.6255C2.98706 8.20288 6.58521 4.60498 11.0073 4.60498C15.4297 4.60498 19.0273 8.20288 19.0273 12.6255C19.0273 17.0476 15.4297 20.6458 11.0073 20.6458Z" fill="#00BDA0" fill-opacity="1.000000" fill-rule="nonzero"/>
		<path id="Vector" d="M14.1528 7.96851L10.4958 12.1814C9.89917 12.8691 10.9424 13.7332 11.5188 13.0693L15.1758 8.85669C15.762 8.18091 14.7407 7.29175 14.1528 7.96851Z" fill="#00BDA0" fill-opacity="1.000000" fill-rule="nonzero"/>
	</g>
</svg>
