<svg width="40" height="87" xmlns="http://www.w3.org/2000/svg" xmlns:xlink="http://www.w3.org/1999/xlink" overflow="hidden"><defs><clipPath id="clip0"><rect x="0" y="0" width="40" height="87"/></clipPath></defs><g clip-path="url(#clip0)"><path d="M20.4111 25.8873 20.4111 288.743" stroke="#8BA5CC" stroke-width="0.995666" fill="none" transform="matrix(1.00435 0 0 1 0 -42.0184)"/><path d="M39.8266 19.9133C39.8266 30.9111 30.9111 39.8266 19.9133 39.8266 8.91549 39.8266 0 30.9111 0 19.9133-3.53732e-15 8.91549 8.91549-3.53732e-15 19.9133-7.07463e-15 30.9111-1.41493e-14 39.8266 8.91549 39.8266 19.9133Z" fill="#F5F7FA" transform="matrix(1.00435 0 0 1 0 -42.0184)"/><path d="M39.3288 19.9133C39.3288 30.6362 30.6362 39.3288 19.9133 39.3288 9.19044 39.3288 0.497833 30.6362 0.497833 19.9133 0.497833 9.19044 9.19044 0.497833 19.9133 0.497833 30.6362 0.497833 39.3288 9.19044 39.3288 19.9133Z" stroke="#8BA5CC" stroke-width="0.995666" fill="none" transform="matrix(1.00435 0 0 1 0 -42.0184)"/><path d="M20.5358 25.8873 20.1946 25.8873 20.1946 17.115 17.5528 18.1072 17.5528 17.7343 20.4663 16.6599 20.5358 16.6599 20.5358 25.8873Z" fill="#3B4244" fill-rule="evenodd" transform="matrix(1.00435 0 0 1 0 -42.0184)"/><path d="M39.8266 151.341C39.8266 162.339 30.9111 171.255 19.9133 171.255 8.91549 171.255 0 162.339 0 151.341-3.53732e-15 140.343 8.91549 131.428 19.9133 131.428 30.9111 131.428 39.8266 140.343 39.8266 151.341Z" fill="#F5F7FA" transform="matrix(1.00435 0 0 1 0 -42.0184)"/><path d="M39.3288 151.341C39.3288 162.064 30.6362 170.757 19.9133 170.757 9.19044 170.757 0.497833 162.064 0.497833 151.341 0.497833 140.618 9.19044 131.926 19.9133 131.926 30.6362 131.926 39.3288 140.618 39.3288 151.341Z" stroke="#8BA5CC" stroke-width="0.995666" fill="none" transform="matrix(1.00435 0 0 1 0 -42.0184)"/><path d="M22.8427 157.315 17.3378 157.315 17.3378 156.974 20.479 153.352C20.993 152.75 21.3754 152.215 21.6261 151.747 21.8768 151.279 22.0021 150.85 22.0021 150.458 22.0021 149.784 21.8062 149.26 21.4144 148.887 21.0225 148.514 20.4705 148.328 19.7585 148.328 19.3287 148.328 18.9368 148.432 18.5829 148.638 18.229 148.844 17.952 149.13 17.7518 149.494 17.5517 149.859 17.4516 150.264 17.4516 150.711L17.1103 150.711C17.1103 150.218 17.2241 149.76 17.4516 149.339 17.6792 148.917 17.9952 148.587 18.3996 148.347 18.8041 148.107 19.2571 147.987 19.7585 147.987 20.5759 147.987 21.2121 148.204 21.6672 148.638 22.1222 149.071 22.3497 149.678 22.3497 150.458 22.3497 151.174 21.9473 152.032 21.1426 153.03L20.5675 153.732 17.7866 156.974 22.8427 156.974 22.8427 157.315Z" fill="#3B4244" fill-rule="evenodd" transform="matrix(1.00435 0 0 1 0 -42.0184)"/><path d="M39.8266 282.769C39.8266 293.767 30.9111 302.682 19.9133 302.682 8.91549 302.682 0 293.767 0 282.769-3.53732e-15 271.771 8.91549 262.856 19.9133 262.856 30.9111 262.856 39.8266 271.771 39.8266 282.769Z" fill="#F5F7FA" transform="matrix(1.00435 0 0 1 0 -42.0184)"/><path d="M39.3288 282.769C39.3288 293.492 30.6362 302.185 19.9133 302.185 9.19044 302.185 0.497833 293.492 0.497833 282.769 0.497833 272.046 9.19044 263.354 19.9133 263.354 30.6362 263.354 39.3288 272.046 39.3288 282.769Z" stroke="#8BA5CC" stroke-width="0.995666" fill="none" transform="matrix(1.00435 0 0 1 0 -42.0184)"/><path d="M19.0064 283.876 19.7774 283.876C20.4979 283.864 21.0805 283.672 21.525 283.302 21.9695 282.931 22.1917 282.459 22.1917 281.886 22.1917 281.233 21.9926 280.714 21.5945 280.331 21.1963 279.948 20.6433 279.756 19.9354 279.756 19.2444 279.756 18.6756 279.958 18.2289 280.363 17.7824 280.767 17.5591 281.298 17.5591 281.956L17.2178 281.956C17.2178 281.466 17.3357 281.028 17.5717 280.64 17.8077 280.253 18.1342 279.952 18.5513 279.737 18.9685 279.522 19.4298 279.415 19.9354 279.415 20.7318 279.415 21.3638 279.639 21.8315 280.088 22.2992 280.536 22.533 281.144 22.533 281.911 22.533 282.4 22.3782 282.836 22.0685 283.219 21.7588 283.603 21.3406 283.875 20.8139 284.035 21.4165 284.173 21.8873 284.435 22.2264 284.818 22.5656 285.202 22.7352 285.697 22.7352 286.304 22.7352 287.087 22.4846 287.711 21.9832 288.175 21.4818 288.638 20.8181 288.87 19.9923 288.87 19.4362 288.87 18.9221 288.749 18.4502 288.509 17.9783 288.269 17.6223 287.951 17.3821 287.555 17.1419 287.159 17.0218 286.702 17.0218 286.183L17.3631 286.183C17.3631 286.858 17.6117 287.417 18.1089 287.862 18.6061 288.306 19.2339 288.528 19.9923 288.528 20.7465 288.528 21.3354 288.333 21.7588 287.944 22.1823 287.554 22.394 287.016 22.394 286.329 22.394 285.65 22.1675 285.132 21.7146 284.774 21.2616 284.416 20.599 284.235 19.7268 284.231L19.0064 284.231 19.0064 283.876Z" fill="#3B4244" fill-rule="evenodd" transform="matrix(1.00435 0 0 1 0 -42.0184)"/></g></svg>