<svg width="94.000000" height="40.000000" viewBox="0 0 94 40" fill="none" xmlns="http://www.w3.org/2000/svg" xmlns:xlink="http://www.w3.org/1999/xlink">
	<desc>
			Created with Pixso.
	</desc>
	<defs/>
	<path id="Vector" d="M0 29.9396C1.84399 27.4469 8.77271 27.3559 11 29.6719L11 36.2411C9.9209 37.276 7.76636 37.7915 5.60986 37.7915C4.78638 37.7915 3.94824 37.6667 3.1814 37.4359L3.1814 40L0 40L0 29.9396ZM8.05786 31.328C6.57837 30.7931 4.65869 30.7931 3.1814 31.328L3.1814 34.9081C4.69409 35.4236 6.54272 35.3001 8.05786 34.7835L8.05786 31.328Z" fill="#607D8B" fill-opacity="1.000000" fill-rule="evenodd"/>
	<path id="Vector" d="M14 40L14 28L17.1631 28L17.1631 37.017L22 37.017L22 40L14 40Z" fill="#607D8B" fill-opacity="1.000000" fill-rule="evenodd"/>
	<path id="Vector" d="M37 40L33.8884 40L33.8884 37.4705L29.114 37.4705L29.114 40L26 40L26 29.938C27.8789 27.354 35.1211 27.354 37 29.938L37 40ZM33.8884 34.5682L33.8884 31.4696C32.4382 30.916 30.5618 30.916 29.114 31.4696L29.114 34.5682L33.8884 34.5682Z" fill="#607D8B" fill-opacity="1.000000" fill-rule="evenodd"/>
	<path id="Vector" d="M39 30.982L39 28L50 28L50 30.982L46.2971 30.982L46.2971 40L42.7009 40L42.7009 30.982L39 30.982Z" fill="#607D8B" fill-opacity="1.000000" fill-rule="evenodd"/>
	<path id="Vector" d="M53 40L56 40L56 28L53 28L53 40Z" fill="#607D8B" fill-opacity="1.000000" fill-rule="evenodd"/>
	<path id="Vector" d="M59.2661 31.202L59.2661 28L69.731 28L69.731 30.779L63.845 36.798L70 36.798L70 40L59 40L59 37.221L65.0991 31.202L59.2661 31.202Z" fill="#607D8B" fill-opacity="1.000000" fill-rule="evenodd"/>
	<path id="Vector" d="M84 40L80.8862 40L80.8862 37.4705L76.1113 37.4705L76.1113 40L73 40L73 29.938C74.8765 27.354 82.1211 27.354 84 29.938L84 40ZM80.8862 34.5682L80.8862 31.4696C79.436 30.916 77.5613 30.916 76.1113 31.4696L76.1113 34.5682L80.8862 34.5682Z" fill="#607D8B" fill-opacity="1.000000" fill-rule="evenodd"/>
	<path id="Vector" d="M81.0403 22C83.0791 22 85.5374 20.3361 86.5312 18.2825L93.584 3.71771C94.5779 1.66653 93.73 0 91.6907 0L75.0813 0C73.0422 0 70.5818 1.66653 69.5881 3.71771L62.5352 18.2825C61.6965 20.014 60.7908 21.5892 59 22L81.0403 22ZM48.5071 12C47.1497 12 46.6094 13.1319 47.3015 14.5238L49.7463 19.4526C50.439 20.8456 52.0984 21.9751 53.4558 21.9751C54.1321 21.9751 54.8994 22.0311 55.6462 21.9751C57.4443 21.8433 58.7109 19.9911 59.533 18.2612L62 13.0656C61.2378 12.4219 60.2976 12 59.4692 12L48.5071 12Z" fill="#00BDA0" fill-opacity="1.000000" fill-rule="evenodd"/>
</svg>
