<svg width="14.000000" height="14.000000" viewBox="0 0 14 14" fill="none" xmlns="http://www.w3.org/2000/svg" xmlns:xlink="http://www.w3.org/1999/xlink">
	<desc>
			Created with Pixso.
	</desc>
	<defs/>
	<path id="Vector" d="M13.1606 6.1604L7.71606 6.17676L7.71606 0.839355C7.71606 0.374268 7.34155 0 6.87646 0C6.41162 0 6.03711 0.374268 6.03711 0.839355L6.05347 6.16064L0.839355 6.16064C0.374268 6.16064 0 6.53491 0 7C0 7.46484 0.374268 7.83936 0.839355 7.83936L6.04541 7.83936L6.04541 13.1606C6.04541 13.6252 6.41968 14 6.88477 14C7.34985 14 7.72412 13.6252 7.72412 13.1606L7.72412 7.83936L13.1606 7.83936C13.6257 7.83936 14 7.46484 14 7C14 6.53467 13.6213 6.1604 13.1606 6.1604Z" fill="#3B4244" fill-opacity="1.000000" fill-rule="nonzero"/>
</svg>
