<svg width="13.538330" height="16.000000" viewBox="0 0 13.5383 16" fill="none" xmlns="http://www.w3.org/2000/svg" xmlns:xlink="http://www.w3.org/1999/xlink">
	<desc>
			Created with Pixso.
	</desc>
	<defs/>
	<path id="Vector" d="M9.1814 7.41891C10.2051 6.67224 10.8718 5.46387 10.8718 4.10257C10.8718 1.84039 9.03149 0 6.76929 0C4.50708 0 2.66675 1.84039 2.66675 4.10257C2.66675 5.46387 3.33325 6.67224 4.35718 7.41891C1.81201 8.39282 0 10.8604 0 13.7436C0 14.9878 1.01221 16 2.25635 16L11.282 16C12.5261 16 13.5383 14.9878 13.5383 13.7436C13.5383 10.8604 11.7263 8.39282 9.1814 7.41891ZM3.89746 4.10257C3.89746 2.51907 5.18579 1.23077 6.76929 1.23077C8.35278 1.23077 9.64111 2.51907 9.64111 4.10257C9.64111 5.68607 8.35278 6.97437 6.76929 6.97437C5.18579 6.97437 3.89746 5.68607 3.89746 4.10257ZM11.282 14.7692L2.25635 14.7692C1.69092 14.7692 1.23071 14.3091 1.23071 13.7436C1.23071 10.6896 3.71533 8.20508 6.76929 8.20508C9.82324 8.20508 12.3076 10.6896 12.3076 13.7436C12.3076 14.3091 11.8477 14.7692 11.282 14.7692Z" fill="#FFFFFF" fill-opacity="1.000000" fill-rule="nonzero"/>
</svg>
